<svg xmlns="http://www.w3.org/2000/svg" viewBox="0 0 512 512" width="512" height="512">
  <line x1="464.0" y1="256.0" x2="464.0" y2="254.2" stroke="rgba(26,31,40,0.259)" stroke-width="2.1" stroke-linecap="round"/>
  <line x1="464.0" y1="254.2" x2="463.9" y2="252.4" stroke="rgba(26,31,40,0.258)" stroke-width="2.0" stroke-linecap="round"/>
  <line x1="463.9" y1="252.4" x2="463.9" y2="250.7" stroke="rgba(26,31,40,0.257)" stroke-width="2.0" stroke-linecap="round"/>
  <line x1="463.9" y1="250.7" x2="463.8" y2="248.9" stroke="rgba(26,31,40,0.256)" stroke-width="2.0" stroke-linecap="round"/>
  <line x1="463.8" y1="248.9" x2="463.7" y2="247.1" stroke="rgba(26,31,40,0.255)" stroke-width="2.0" stroke-linecap="round"/>
  <line x1="463.7" y1="247.1" x2="463.5" y2="245.3" stroke="rgba(26,31,40,0.254)" stroke-width="2.0" stroke-linecap="round"/>
  <line x1="463.5" y1="245.3" x2="463.3" y2="243.6" stroke="rgba(26,31,40,0.253)" stroke-width="2.0" stroke-linecap="round"/>
  <line x1="463.3" y1="243.6" x2="463.2" y2="241.8" stroke="rgba(26,31,40,0.252)" stroke-width="2.0" stroke-linecap="round"/>
  <line x1="463.2" y1="241.8" x2="462.9" y2="240.0" stroke="rgba(26,31,40,0.251)" stroke-width="2.0" stroke-linecap="round"/>
  <line x1="462.9" y1="240.0" x2="462.7" y2="238.2" stroke="rgba(26,31,40,0.250)" stroke-width="2.0" stroke-linecap="round"/>
  <line x1="462.7" y1="238.2" x2="462.4" y2="236.4" stroke="rgba(26,31,40,0.249)" stroke-width="2.0" stroke-linecap="round"/>
  <line x1="462.4" y1="236.4" x2="462.1" y2="234.7" stroke="rgba(26,31,40,0.248)" stroke-width="2.0" stroke-linecap="round"/>
  <line x1="462.1" y1="234.7" x2="461.7" y2="232.9" stroke="rgba(26,31,40,0.247)" stroke-width="2.0" stroke-linecap="round"/>
  <line x1="461.7" y1="232.9" x2="461.4" y2="231.1" stroke="rgba(26,31,40,0.246)" stroke-width="2.0" stroke-linecap="round"/>
  <line x1="461.4" y1="231.1" x2="461.0" y2="229.3" stroke="rgba(26,31,40,0.245)" stroke-width="2.0" stroke-linecap="round"/>
  <line x1="461.0" y1="229.3" x2="460.6" y2="227.5" stroke="rgba(26,31,40,0.244)" stroke-width="2.0" stroke-linecap="round"/>
  <line x1="460.6" y1="227.5" x2="460.1" y2="225.8" stroke="rgba(26,31,40,0.243)" stroke-width="1.9" stroke-linecap="round"/>
  <line x1="460.1" y1="225.8" x2="459.7" y2="224.0" stroke="rgba(26,31,40,0.242)" stroke-width="1.9" stroke-linecap="round"/>
  <line x1="459.7" y1="224.0" x2="459.1" y2="222.2" stroke="rgba(26,31,40,0.241)" stroke-width="1.9" stroke-linecap="round"/>
  <line x1="459.1" y1="222.2" x2="458.6" y2="220.4" stroke="rgba(26,31,40,0.240)" stroke-width="1.9" stroke-linecap="round"/>
  <line x1="458.6" y1="220.4" x2="458.1" y2="218.6" stroke="rgba(26,31,40,0.239)" stroke-width="1.9" stroke-linecap="round"/>
  <line x1="458.1" y1="218.6" x2="457.5" y2="216.8" stroke="rgba(26,31,40,0.238)" stroke-width="1.9" stroke-linecap="round"/>
  <line x1="457.5" y1="216.8" x2="456.8" y2="215.0" stroke="rgba(26,31,40,0.237)" stroke-width="1.9" stroke-linecap="round"/>
  <line x1="456.8" y1="215.0" x2="456.2" y2="213.3" stroke="rgba(26,31,40,0.236)" stroke-width="1.9" stroke-linecap="round"/>
  <line x1="456.2" y1="213.3" x2="455.5" y2="211.5" stroke="rgba(26,31,40,0.235)" stroke-width="1.9" stroke-linecap="round"/>
  <line x1="455.5" y1="211.5" x2="454.8" y2="209.7" stroke="rgba(26,31,40,0.234)" stroke-width="1.9" stroke-linecap="round"/>
  <line x1="454.8" y1="209.7" x2="454.0" y2="207.9" stroke="rgba(26,31,40,0.233)" stroke-width="1.9" stroke-linecap="round"/>
  <line x1="454.0" y1="207.9" x2="453.3" y2="206.1" stroke="rgba(26,31,40,0.233)" stroke-width="1.9" stroke-linecap="round"/>
  <line x1="453.3" y1="206.1" x2="452.5" y2="204.3" stroke="rgba(26,31,40,0.232)" stroke-width="1.9" stroke-linecap="round"/>
  <line x1="452.5" y1="204.3" x2="451.6" y2="202.5" stroke="rgba(26,31,40,0.231)" stroke-width="1.9" stroke-linecap="round"/>
  <line x1="451.6" y1="202.5" x2="450.8" y2="200.7" stroke="rgba(26,31,40,0.230)" stroke-width="1.9" stroke-linecap="round"/>
  <line x1="450.8" y1="200.7" x2="449.9" y2="198.9" stroke="rgba(26,31,40,0.229)" stroke-width="1.9" stroke-linecap="round"/>
  <line x1="449.9" y1="198.9" x2="448.9" y2="197.1" stroke="rgba(26,31,40,0.228)" stroke-width="1.8" stroke-linecap="round"/>
  <line x1="448.9" y1="197.1" x2="447.9" y2="195.3" stroke="rgba(26,31,40,0.227)" stroke-width="1.8" stroke-linecap="round"/>
  <line x1="447.9" y1="195.3" x2="446.9" y2="193.5" stroke="rgba(26,31,40,0.226)" stroke-width="1.8" stroke-linecap="round"/>
  <line x1="446.9" y1="193.5" x2="445.9" y2="191.8" stroke="rgba(26,31,40,0.225)" stroke-width="1.8" stroke-linecap="round"/>
  <line x1="445.9" y1="191.8" x2="444.8" y2="190.0" stroke="rgba(26,31,40,0.224)" stroke-width="1.8" stroke-linecap="round"/>
  <line x1="444.8" y1="190.0" x2="443.7" y2="188.2" stroke="rgba(26,31,40,0.223)" stroke-width="1.8" stroke-linecap="round"/>
  <line x1="443.7" y1="188.2" x2="442.5" y2="186.4" stroke="rgba(26,31,40,0.222)" stroke-width="1.8" stroke-linecap="round"/>
  <line x1="442.5" y1="186.4" x2="441.4" y2="184.6" stroke="rgba(26,31,40,0.221)" stroke-width="1.8" stroke-linecap="round"/>
  <line x1="441.4" y1="184.6" x2="440.1" y2="182.8" stroke="rgba(26,31,40,0.220)" stroke-width="1.8" stroke-linecap="round"/>
  <line x1="440.1" y1="182.8" x2="438.9" y2="181.0" stroke="rgba(26,31,40,0.219)" stroke-width="1.8" stroke-linecap="round"/>
  <line x1="438.9" y1="181.0" x2="437.6" y2="179.2" stroke="rgba(26,31,40,0.218)" stroke-width="1.8" stroke-linecap="round"/>
  <line x1="437.6" y1="179.2" x2="436.2" y2="177.4" stroke="rgba(26,31,40,0.217)" stroke-width="1.8" stroke-linecap="round"/>
  <line x1="436.2" y1="177.4" x2="434.8" y2="175.6" stroke="rgba(26,31,40,0.216)" stroke-width="1.8" stroke-linecap="round"/>
  <line x1="434.8" y1="175.6" x2="433.4" y2="173.8" stroke="rgba(26,31,40,0.216)" stroke-width="1.8" stroke-linecap="round"/>
  <line x1="433.4" y1="173.8" x2="432.0" y2="172.0" stroke="rgba(26,31,40,0.215)" stroke-width="1.8" stroke-linecap="round"/>
  <line x1="432.0" y1="172.0" x2="430.4" y2="170.3" stroke="rgba(26,31,40,0.214)" stroke-width="1.8" stroke-linecap="round"/>
  <line x1="430.4" y1="170.3" x2="428.9" y2="168.5" stroke="rgba(26,31,40,0.213)" stroke-width="1.7" stroke-linecap="round"/>
  <line x1="428.9" y1="168.5" x2="427.3" y2="166.7" stroke="rgba(26,31,40,0.212)" stroke-width="1.7" stroke-linecap="round"/>
  <line x1="427.3" y1="166.7" x2="425.7" y2="164.9" stroke="rgba(26,31,40,0.211)" stroke-width="1.7" stroke-linecap="round"/>
  <line x1="425.7" y1="164.9" x2="424.0" y2="163.1" stroke="rgba(26,31,40,0.210)" stroke-width="1.7" stroke-linecap="round"/>
  <line x1="424.0" y1="163.1" x2="422.2" y2="161.4" stroke="rgba(26,31,40,0.209)" stroke-width="1.7" stroke-linecap="round"/>
  <line x1="422.2" y1="161.4" x2="420.5" y2="159.6" stroke="rgba(26,31,40,0.208)" stroke-width="1.7" stroke-linecap="round"/>
  <line x1="420.5" y1="159.6" x2="418.6" y2="157.8" stroke="rgba(26,31,40,0.207)" stroke-width="1.7" stroke-linecap="round"/>
  <line x1="418.6" y1="157.8" x2="416.7" y2="156.1" stroke="rgba(26,31,40,0.206)" stroke-width="1.7" stroke-linecap="round"/>
  <line x1="416.7" y1="156.1" x2="414.8" y2="154.3" stroke="rgba(26,31,40,0.206)" stroke-width="1.7" stroke-linecap="round"/>
  <line x1="414.8" y1="154.3" x2="412.8" y2="152.6" stroke="rgba(26,31,40,0.205)" stroke-width="1.7" stroke-linecap="round"/>
  <line x1="412.8" y1="152.6" x2="410.8" y2="150.8" stroke="rgba(26,31,40,0.204)" stroke-width="1.7" stroke-linecap="round"/>
  <line x1="410.8" y1="150.8" x2="408.7" y2="149.1" stroke="rgba(26,31,40,0.203)" stroke-width="1.7" stroke-linecap="round"/>
  <line x1="408.7" y1="149.1" x2="406.6" y2="147.4" stroke="rgba(26,31,40,0.202)" stroke-width="1.7" stroke-linecap="round"/>
  <line x1="406.6" y1="147.4" x2="404.4" y2="145.7" stroke="rgba(26,31,40,0.201)" stroke-width="1.7" stroke-linecap="round"/>
  <line x1="404.4" y1="145.7" x2="402.1" y2="144.0" stroke="rgba(26,31,40,0.200)" stroke-width="1.7" stroke-linecap="round"/>
  <line x1="402.1" y1="144.0" x2="399.8" y2="142.3" stroke="rgba(26,31,40,0.200)" stroke-width="1.7" stroke-linecap="round"/>
  <line x1="399.8" y1="142.3" x2="397.5" y2="140.6" stroke="rgba(26,31,40,0.199)" stroke-width="1.7" stroke-linecap="round"/>
  <line x1="397.5" y1="140.6" x2="395.0" y2="138.9" stroke="rgba(26,31,40,0.198)" stroke-width="1.7" stroke-linecap="round"/>
  <line x1="395.0" y1="138.9" x2="392.6" y2="137.2" stroke="rgba(26,31,40,0.197)" stroke-width="1.6" stroke-linecap="round"/>
  <line x1="392.6" y1="137.2" x2="390.0" y2="135.6" stroke="rgba(26,31,40,0.196)" stroke-width="1.6" stroke-linecap="round"/>
  <line x1="390.0" y1="135.6" x2="387.4" y2="134.0" stroke="rgba(26,31,40,0.195)" stroke-width="1.6" stroke-linecap="round"/>
  <line x1="387.4" y1="134.0" x2="384.7" y2="132.3" stroke="rgba(26,31,40,0.195)" stroke-width="1.6" stroke-linecap="round"/>
  <line x1="384.7" y1="132.3" x2="382.0" y2="130.7" stroke="rgba(26,31,40,0.194)" stroke-width="1.6" stroke-linecap="round"/>
  <line x1="382.0" y1="130.7" x2="379.2" y2="129.2" stroke="rgba(26,31,40,0.193)" stroke-width="1.6" stroke-linecap="round"/>
  <line x1="379.2" y1="129.2" x2="376.3" y2="127.6" stroke="rgba(26,31,40,0.192)" stroke-width="1.6" stroke-linecap="round"/>
  <line x1="376.3" y1="127.6" x2="373.4" y2="126.0" stroke="rgba(26,31,40,0.192)" stroke-width="1.6" stroke-linecap="round"/>
  <line x1="373.4" y1="126.0" x2="370.4" y2="124.5" stroke="rgba(26,31,40,0.191)" stroke-width="1.6" stroke-linecap="round"/>
  <line x1="370.4" y1="124.5" x2="367.3" y2="123.0" stroke="rgba(26,31,40,0.190)" stroke-width="1.6" stroke-linecap="round"/>
  <line x1="367.3" y1="123.0" x2="364.2" y2="121.5" stroke="rgba(26,31,40,0.189)" stroke-width="1.6" stroke-linecap="round"/>
  <line x1="364.2" y1="121.5" x2="361.0" y2="120.1" stroke="rgba(26,31,40,0.189)" stroke-width="1.6" stroke-linecap="round"/>
  <line x1="361.0" y1="120.1" x2="357.7" y2="118.7" stroke="rgba(26,31,40,0.188)" stroke-width="1.6" stroke-linecap="round"/>
  <line x1="357.7" y1="118.7" x2="354.3" y2="117.3" stroke="rgba(26,31,40,0.187)" stroke-width="1.6" stroke-linecap="round"/>
  <line x1="354.3" y1="117.3" x2="350.9" y2="115.9" stroke="rgba(26,31,40,0.187)" stroke-width="1.6" stroke-linecap="round"/>
  <line x1="350.9" y1="115.9" x2="347.4" y2="114.6" stroke="rgba(26,31,40,0.186)" stroke-width="1.6" stroke-linecap="round"/>
  <line x1="347.4" y1="114.6" x2="343.8" y2="113.3" stroke="rgba(26,31,40,0.185)" stroke-width="1.6" stroke-linecap="round"/>
  <line x1="343.8" y1="113.3" x2="340.1" y2="112.0" stroke="rgba(26,31,40,0.185)" stroke-width="1.6" stroke-linecap="round"/>
  <line x1="340.1" y1="112.0" x2="336.3" y2="110.8" stroke="rgba(26,31,40,0.184)" stroke-width="1.6" stroke-linecap="round"/>
  <line x1="336.3" y1="110.8" x2="332.5" y2="109.6" stroke="rgba(26,31,40,0.184)" stroke-width="1.6" stroke-linecap="round"/>
  <line x1="332.5" y1="109.6" x2="328.6" y2="108.5" stroke="rgba(26,31,40,0.183)" stroke-width="1.6" stroke-linecap="round"/>
  <line x1="328.6" y1="108.5" x2="324.6" y2="107.4" stroke="rgba(26,31,40,0.183)" stroke-width="1.6" stroke-linecap="round"/>
  <line x1="324.6" y1="107.4" x2="320.5" y2="106.3" stroke="rgba(26,31,40,0.182)" stroke-width="1.6" stroke-linecap="round"/>
  <line x1="320.5" y1="106.3" x2="316.4" y2="105.3" stroke="rgba(26,31,40,0.182)" stroke-width="1.5" stroke-linecap="round"/>
  <line x1="316.4" y1="105.3" x2="312.2" y2="104.4" stroke="rgba(26,31,40,0.181)" stroke-width="1.5" stroke-linecap="round"/>
  <line x1="312.2" y1="104.4" x2="307.8" y2="103.5" stroke="rgba(26,31,40,0.181)" stroke-width="1.5" stroke-linecap="round"/>
  <line x1="307.8" y1="103.5" x2="303.4" y2="102.7" stroke="rgba(26,31,40,0.180)" stroke-width="1.5" stroke-linecap="round"/>
  <line x1="303.4" y1="102.7" x2="299.0" y2="102.0" stroke="rgba(26,31,40,0.180)" stroke-width="1.5" stroke-linecap="round"/>
  <line x1="299.0" y1="102.0" x2="294.4" y2="101.3" stroke="rgba(26,31,40,0.180)" stroke-width="1.5" stroke-linecap="round"/>
  <line x1="294.4" y1="101.3" x2="289.7" y2="100.6" stroke="rgba(26,31,40,0.179)" stroke-width="1.5" stroke-linecap="round"/>
  <line x1="289.7" y1="100.6" x2="285.0" y2="100.1" stroke="rgba(26,31,40,0.179)" stroke-width="1.5" stroke-linecap="round"/>
  <line x1="285.0" y1="100.1" x2="280.2" y2="99.6" stroke="rgba(26,31,40,0.179)" stroke-width="1.5" stroke-linecap="round"/>
  <line x1="280.2" y1="99.6" x2="275.3" y2="99.2" stroke="rgba(26,31,40,0.179)" stroke-width="1.5" stroke-linecap="round"/>
  <line x1="275.3" y1="99.2" x2="270.3" y2="98.9" stroke="rgba(26,31,40,0.179)" stroke-width="1.5" stroke-linecap="round"/>
  <line x1="270.3" y1="98.9" x2="265.3" y2="98.7" stroke="rgba(26,31,40,0.178)" stroke-width="1.5" stroke-linecap="round"/>
  <line x1="265.3" y1="98.7" x2="260.2" y2="98.6" stroke="rgba(26,31,40,0.178)" stroke-width="1.5" stroke-linecap="round"/>
  <line x1="260.2" y1="98.6" x2="255.0" y2="98.6" stroke="rgba(26,31,40,0.178)" stroke-width="1.5" stroke-linecap="round"/>
  <line x1="255.0" y1="98.6" x2="249.7" y2="98.6" stroke="rgba(26,31,40,0.178)" stroke-width="1.5" stroke-linecap="round"/>
  <line x1="249.7" y1="98.6" x2="244.4" y2="98.8" stroke="rgba(26,31,40,0.178)" stroke-width="1.5" stroke-linecap="round"/>
  <line x1="244.4" y1="98.8" x2="239.0" y2="99.1" stroke="rgba(26,31,40,0.179)" stroke-width="1.5" stroke-linecap="round"/>
  <line x1="239.0" y1="99.1" x2="233.5" y2="99.5" stroke="rgba(26,31,40,0.179)" stroke-width="1.5" stroke-linecap="round"/>
  <line x1="233.5" y1="99.5" x2="228.0" y2="100.0" stroke="rgba(26,31,40,0.179)" stroke-width="1.5" stroke-linecap="round"/>
  <line x1="228.0" y1="100.0" x2="222.4" y2="100.6" stroke="rgba(26,31,40,0.179)" stroke-width="1.5" stroke-linecap="round"/>
  <line x1="222.4" y1="100.6" x2="216.8" y2="101.4" stroke="rgba(26,31,40,0.179)" stroke-width="1.5" stroke-linecap="round"/>
  <line x1="216.8" y1="101.4" x2="211.1" y2="102.3" stroke="rgba(26,31,40,0.180)" stroke-width="1.5" stroke-linecap="round"/>
  <line x1="211.1" y1="102.3" x2="205.4" y2="103.3" stroke="rgba(26,31,40,0.180)" stroke-width="1.5" stroke-linecap="round"/>
  <line x1="205.4" y1="103.3" x2="199.6" y2="104.5" stroke="rgba(26,31,40,0.181)" stroke-width="1.5" stroke-linecap="round"/>
  <line x1="199.6" y1="104.5" x2="193.9" y2="105.8" stroke="rgba(26,31,40,0.181)" stroke-width="1.5" stroke-linecap="round"/>
  <line x1="193.9" y1="105.8" x2="188.1" y2="107.2" stroke="rgba(26,31,40,0.182)" stroke-width="1.5" stroke-linecap="round"/>
  <line x1="188.1" y1="107.2" x2="182.2" y2="108.8" stroke="rgba(26,31,40,0.183)" stroke-width="1.6" stroke-linecap="round"/>
  <line x1="182.2" y1="108.8" x2="176.4" y2="110.5" stroke="rgba(26,31,40,0.183)" stroke-width="1.6" stroke-linecap="round"/>
  <line x1="176.4" y1="110.5" x2="170.6" y2="112.5" stroke="rgba(26,31,40,0.184)" stroke-width="1.6" stroke-linecap="round"/>
  <line x1="170.6" y1="112.5" x2="164.7" y2="114.5" stroke="rgba(26,31,40,0.185)" stroke-width="1.6" stroke-linecap="round"/>
  <line x1="164.7" y1="114.5" x2="158.9" y2="116.8" stroke="rgba(26,31,40,0.186)" stroke-width="1.6" stroke-linecap="round"/>
  <line x1="158.9" y1="116.8" x2="153.2" y2="119.2" stroke="rgba(26,31,40,0.187)" stroke-width="1.6" stroke-linecap="round"/>
  <line x1="153.2" y1="119.2" x2="147.4" y2="121.7" stroke="rgba(26,31,40,0.189)" stroke-width="1.6" stroke-linecap="round"/>
  <line x1="147.4" y1="121.7" x2="141.7" y2="124.5" stroke="rgba(26,31,40,0.190)" stroke-width="1.6" stroke-linecap="round"/>
  <line x1="141.7" y1="124.5" x2="136.1" y2="127.4" stroke="rgba(26,31,40,0.191)" stroke-width="1.6" stroke-linecap="round"/>
  <line x1="136.1" y1="127.4" x2="130.5" y2="130.5" stroke="rgba(26,31,40,0.193)" stroke-width="1.6" stroke-linecap="round"/>
  <line x1="130.5" y1="130.5" x2="125.0" y2="133.7" stroke="rgba(26,31,40,0.194)" stroke-width="1.6" stroke-linecap="round"/>
  <line x1="125.0" y1="133.7" x2="119.6" y2="137.2" stroke="rgba(26,31,40,0.196)" stroke-width="1.6" stroke-linecap="round"/>
  <line x1="119.6" y1="137.2" x2="114.3" y2="140.8" stroke="rgba(26,31,40,0.198)" stroke-width="1.6" stroke-linecap="round"/>
  <line x1="114.3" y1="140.8" x2="109.1" y2="144.6" stroke="rgba(26,31,40,0.199)" stroke-width="1.7" stroke-linecap="round"/>
  <line x1="109.1" y1="144.6" x2="104.0" y2="148.5" stroke="rgba(26,31,40,0.201)" stroke-width="1.7" stroke-linecap="round"/>
  <line x1="104.0" y1="148.5" x2="99.1" y2="152.6" stroke="rgba(26,31,40,0.203)" stroke-width="1.7" stroke-linecap="round"/>
  <line x1="99.1" y1="152.6" x2="94.3" y2="156.9" stroke="rgba(26,31,40,0.205)" stroke-width="1.7" stroke-linecap="round"/>
  <line x1="94.3" y1="156.9" x2="89.7" y2="161.4" stroke="rgba(26,31,40,0.208)" stroke-width="1.7" stroke-linecap="round"/>
  <line x1="89.7" y1="161.4" x2="85.3" y2="166.0" stroke="rgba(26,31,40,0.210)" stroke-width="1.7" stroke-linecap="round"/>
  <line x1="85.3" y1="166.0" x2="81.1" y2="170.8" stroke="rgba(26,31,40,0.212)" stroke-width="1.7" stroke-linecap="round"/>
  <line x1="81.1" y1="170.8" x2="77.1" y2="175.7" stroke="rgba(26,31,40,0.215)" stroke-width="1.8" stroke-linecap="round"/>
  <line x1="77.1" y1="175.7" x2="73.3" y2="180.8" stroke="rgba(26,31,40,0.217)" stroke-width="1.8" stroke-linecap="round"/>
  <line x1="73.3" y1="180.8" x2="69.7" y2="186.0" stroke="rgba(26,31,40,0.220)" stroke-width="1.8" stroke-linecap="round"/>
  <line x1="69.7" y1="186.0" x2="66.3" y2="191.4" stroke="rgba(26,31,40,0.223)" stroke-width="1.8" stroke-linecap="round"/>
  <line x1="66.3" y1="191.4" x2="63.2" y2="196.8" stroke="rgba(26,31,40,0.226)" stroke-width="1.8" stroke-linecap="round"/>
  <line x1="63.2" y1="196.8" x2="60.4" y2="202.4" stroke="rgba(26,31,40,0.229)" stroke-width="1.9" stroke-linecap="round"/>
  <line x1="60.4" y1="202.4" x2="57.9" y2="208.1" stroke="rgba(26,31,40,0.232)" stroke-width="1.9" stroke-linecap="round"/>
  <line x1="57.9" y1="208.1" x2="55.6" y2="213.9" stroke="rgba(26,31,40,0.235)" stroke-width="1.9" stroke-linecap="round"/>
  <line x1="55.6" y1="213.9" x2="53.6" y2="219.7" stroke="rgba(26,31,40,0.238)" stroke-width="1.9" stroke-linecap="round"/>
  <line x1="53.6" y1="219.7" x2="51.9" y2="225.7" stroke="rgba(26,31,40,0.241)" stroke-width="1.9" stroke-linecap="round"/>
  <line x1="51.9" y1="225.7" x2="50.5" y2="231.7" stroke="rgba(26,31,40,0.244)" stroke-width="2.0" stroke-linecap="round"/>
  <line x1="50.5" y1="231.7" x2="49.4" y2="237.7" stroke="rgba(26,31,40,0.248)" stroke-width="2.0" stroke-linecap="round"/>
  <line x1="49.4" y1="237.7" x2="48.6" y2="243.8" stroke="rgba(26,31,40,0.251)" stroke-width="2.0" stroke-linecap="round"/>
  <line x1="48.6" y1="243.8" x2="48.2" y2="249.9" stroke="rgba(26,31,40,0.254)" stroke-width="2.0" stroke-linecap="round"/>
  <line x1="48.2" y1="249.9" x2="48.0" y2="256.0" stroke="rgba(26,31,40,0.258)" stroke-width="2.0" stroke-linecap="round"/>
  <line x1="48.0" y1="256.0" x2="48.2" y2="262.1" stroke="rgba(26,31,40,0.261)" stroke-width="2.1" stroke-linecap="round"/>
  <line x1="48.2" y1="262.1" x2="48.6" y2="268.2" stroke="rgba(26,31,40,0.265)" stroke-width="2.1" stroke-linecap="round"/>
  <line x1="48.6" y1="268.2" x2="49.4" y2="274.3" stroke="rgba(26,31,40,0.268)" stroke-width="2.1" stroke-linecap="round"/>
  <line x1="49.4" y1="274.3" x2="50.5" y2="280.3" stroke="rgba(26,31,40,0.272)" stroke-width="2.1" stroke-linecap="round"/>
  <line x1="50.5" y1="280.3" x2="51.9" y2="286.3" stroke="rgba(26,31,40,0.276)" stroke-width="2.2" stroke-linecap="round"/>
  <line x1="51.9" y1="286.3" x2="53.6" y2="292.3" stroke="rgba(26,31,40,0.279)" stroke-width="2.2" stroke-linecap="round"/>
  <line x1="53.6" y1="292.3" x2="55.6" y2="298.1" stroke="rgba(26,31,40,0.283)" stroke-width="2.2" stroke-linecap="round"/>
  <line x1="55.6" y1="298.1" x2="57.9" y2="303.9" stroke="rgba(26,31,40,0.286)" stroke-width="2.2" stroke-linecap="round"/>
  <line x1="57.9" y1="303.9" x2="60.4" y2="309.6" stroke="rgba(26,31,40,0.289)" stroke-width="2.3" stroke-linecap="round"/>
  <line x1="60.4" y1="309.6" x2="63.2" y2="315.2" stroke="rgba(26,31,40,0.293)" stroke-width="2.3" stroke-linecap="round"/>
  <line x1="63.2" y1="315.2" x2="66.3" y2="320.6" stroke="rgba(26,31,40,0.296)" stroke-width="2.3" stroke-linecap="round"/>
  <line x1="66.3" y1="320.6" x2="69.7" y2="326.0" stroke="rgba(26,31,40,0.300)" stroke-width="2.3" stroke-linecap="round"/>
  <line x1="69.7" y1="326.0" x2="73.3" y2="331.2" stroke="rgba(26,31,40,0.303)" stroke-width="2.3" stroke-linecap="round"/>
  <line x1="73.3" y1="331.2" x2="77.1" y2="336.3" stroke="rgba(26,31,40,0.306)" stroke-width="2.4" stroke-linecap="round"/>
  <line x1="77.1" y1="336.3" x2="81.1" y2="341.2" stroke="rgba(26,31,40,0.309)" stroke-width="2.4" stroke-linecap="round"/>
  <line x1="81.1" y1="341.2" x2="85.3" y2="346.0" stroke="rgba(26,31,40,0.312)" stroke-width="2.4" stroke-linecap="round"/>
  <line x1="85.3" y1="346.0" x2="89.7" y2="350.6" stroke="rgba(26,31,40,0.315)" stroke-width="2.4" stroke-linecap="round"/>
  <line x1="89.7" y1="350.6" x2="94.3" y2="355.1" stroke="rgba(26,31,40,0.318)" stroke-width="2.4" stroke-linecap="round"/>
  <line x1="94.3" y1="355.1" x2="99.1" y2="359.4" stroke="rgba(26,31,40,0.321)" stroke-width="2.5" stroke-linecap="round"/>
  <line x1="99.1" y1="359.4" x2="104.0" y2="363.5" stroke="rgba(26,31,40,0.323)" stroke-width="2.5" stroke-linecap="round"/>
  <line x1="104.0" y1="363.5" x2="109.1" y2="367.4" stroke="rgba(26,31,40,0.326)" stroke-width="2.5" stroke-linecap="round"/>
  <line x1="109.1" y1="367.4" x2="114.3" y2="371.2" stroke="rgba(26,31,40,0.328)" stroke-width="2.5" stroke-linecap="round"/>
  <line x1="114.3" y1="371.2" x2="119.6" y2="374.8" stroke="rgba(26,31,40,0.331)" stroke-width="2.5" stroke-linecap="round"/>
  <line x1="119.6" y1="374.8" x2="125.0" y2="378.3" stroke="rgba(26,31,40,0.333)" stroke-width="2.5" stroke-linecap="round"/>
  <line x1="125.0" y1="378.3" x2="130.5" y2="381.5" stroke="rgba(26,31,40,0.335)" stroke-width="2.6" stroke-linecap="round"/>
  <line x1="130.5" y1="381.5" x2="136.1" y2="384.6" stroke="rgba(26,31,40,0.337)" stroke-width="2.6" stroke-linecap="round"/>
  <line x1="136.1" y1="384.6" x2="141.7" y2="387.5" stroke="rgba(26,31,40,0.339)" stroke-width="2.6" stroke-linecap="round"/>
  <line x1="141.7" y1="387.5" x2="147.4" y2="390.3" stroke="rgba(26,31,40,0.341)" stroke-width="2.6" stroke-linecap="round"/>
  <line x1="147.4" y1="390.3" x2="153.2" y2="392.8" stroke="rgba(26,31,40,0.343)" stroke-width="2.6" stroke-linecap="round"/>
  <line x1="153.2" y1="392.8" x2="158.9" y2="395.2" stroke="rgba(26,31,40,0.344)" stroke-width="2.6" stroke-linecap="round"/>
  <line x1="158.9" y1="395.2" x2="164.7" y2="397.5" stroke="rgba(26,31,40,0.346)" stroke-width="2.6" stroke-linecap="round"/>
  <line x1="164.7" y1="397.5" x2="170.6" y2="399.5" stroke="rgba(26,31,40,0.347)" stroke-width="2.6" stroke-linecap="round"/>
  <line x1="170.6" y1="399.5" x2="176.4" y2="401.5" stroke="rgba(26,31,40,0.349)" stroke-width="2.7" stroke-linecap="round"/>
  <line x1="176.4" y1="401.5" x2="182.2" y2="403.2" stroke="rgba(26,31,40,0.350)" stroke-width="2.7" stroke-linecap="round"/>
  <line x1="182.2" y1="403.2" x2="188.1" y2="404.8" stroke="rgba(26,31,40,0.351)" stroke-width="2.7" stroke-linecap="round"/>
  <line x1="188.1" y1="404.8" x2="193.9" y2="406.2" stroke="rgba(26,31,40,0.352)" stroke-width="2.7" stroke-linecap="round"/>
  <line x1="193.9" y1="406.2" x2="199.6" y2="407.5" stroke="rgba(26,31,40,0.353)" stroke-width="2.7" stroke-linecap="round"/>
  <line x1="199.6" y1="407.5" x2="205.4" y2="408.7" stroke="rgba(26,31,40,0.354)" stroke-width="2.7" stroke-linecap="round"/>
  <line x1="205.4" y1="408.7" x2="211.1" y2="409.7" stroke="rgba(26,31,40,0.354)" stroke-width="2.7" stroke-linecap="round"/>
  <line x1="211.1" y1="409.7" x2="216.8" y2="410.6" stroke="rgba(26,31,40,0.355)" stroke-width="2.7" stroke-linecap="round"/>
  <line x1="216.8" y1="410.6" x2="222.4" y2="411.4" stroke="rgba(26,31,40,0.355)" stroke-width="2.7" stroke-linecap="round"/>
  <line x1="222.4" y1="411.4" x2="228.0" y2="412.0" stroke="rgba(26,31,40,0.356)" stroke-width="2.7" stroke-linecap="round"/>
  <line x1="228.0" y1="412.0" x2="233.5" y2="412.5" stroke="rgba(26,31,40,0.356)" stroke-width="2.7" stroke-linecap="round"/>
  <line x1="233.5" y1="412.5" x2="239.0" y2="412.9" stroke="rgba(26,31,40,0.357)" stroke-width="2.7" stroke-linecap="round"/>
  <line x1="239.0" y1="412.9" x2="244.4" y2="413.2" stroke="rgba(26,31,40,0.357)" stroke-width="2.7" stroke-linecap="round"/>
  <line x1="244.4" y1="413.2" x2="249.7" y2="413.4" stroke="rgba(26,31,40,0.357)" stroke-width="2.7" stroke-linecap="round"/>
  <line x1="249.7" y1="413.4" x2="255.0" y2="413.4" stroke="rgba(26,31,40,0.357)" stroke-width="2.7" stroke-linecap="round"/>
  <line x1="255.0" y1="413.4" x2="260.2" y2="413.4" stroke="rgba(26,31,40,0.357)" stroke-width="2.7" stroke-linecap="round"/>
  <line x1="260.2" y1="413.4" x2="265.3" y2="413.3" stroke="rgba(26,31,40,0.357)" stroke-width="2.7" stroke-linecap="round"/>
  <line x1="265.3" y1="413.3" x2="270.3" y2="413.1" stroke="rgba(26,31,40,0.357)" stroke-width="2.7" stroke-linecap="round"/>
  <line x1="270.3" y1="413.1" x2="275.3" y2="412.8" stroke="rgba(26,31,40,0.357)" stroke-width="2.7" stroke-linecap="round"/>
  <line x1="275.3" y1="412.8" x2="280.2" y2="412.4" stroke="rgba(26,31,40,0.356)" stroke-width="2.7" stroke-linecap="round"/>
  <line x1="280.2" y1="412.4" x2="285.0" y2="411.9" stroke="rgba(26,31,40,0.356)" stroke-width="2.7" stroke-linecap="round"/>
  <line x1="285.0" y1="411.9" x2="289.7" y2="411.4" stroke="rgba(26,31,40,0.356)" stroke-width="2.7" stroke-linecap="round"/>
  <line x1="289.7" y1="411.4" x2="294.4" y2="410.7" stroke="rgba(26,31,40,0.355)" stroke-width="2.7" stroke-linecap="round"/>
  <line x1="294.4" y1="410.7" x2="299.0" y2="410.0" stroke="rgba(26,31,40,0.355)" stroke-width="2.7" stroke-linecap="round"/>
  <line x1="299.0" y1="410.0" x2="303.4" y2="409.3" stroke="rgba(26,31,40,0.355)" stroke-width="2.7" stroke-linecap="round"/>
  <line x1="303.4" y1="409.3" x2="307.8" y2="408.5" stroke="rgba(26,31,40,0.354)" stroke-width="2.7" stroke-linecap="round"/>
  <line x1="307.8" y1="408.5" x2="312.2" y2="407.6" stroke="rgba(26,31,40,0.353)" stroke-width="2.7" stroke-linecap="round"/>
  <line x1="312.2" y1="407.6" x2="316.4" y2="406.7" stroke="rgba(26,31,40,0.353)" stroke-width="2.7" stroke-linecap="round"/>
  <line x1="316.4" y1="406.7" x2="320.5" y2="405.7" stroke="rgba(26,31,40,0.352)" stroke-width="2.7" stroke-linecap="round"/>
  <line x1="320.5" y1="405.7" x2="324.6" y2="404.6" stroke="rgba(26,31,40,0.352)" stroke-width="2.7" stroke-linecap="round"/>
  <line x1="324.6" y1="404.6" x2="328.6" y2="403.5" stroke="rgba(26,31,40,0.351)" stroke-width="2.7" stroke-linecap="round"/>
  <line x1="328.6" y1="403.5" x2="332.5" y2="402.4" stroke="rgba(26,31,40,0.350)" stroke-width="2.7" stroke-linecap="round"/>
  <line x1="332.5" y1="402.4" x2="336.3" y2="401.2" stroke="rgba(26,31,40,0.349)" stroke-width="2.7" stroke-linecap="round"/>
  <line x1="336.3" y1="401.2" x2="340.1" y2="400.0" stroke="rgba(26,31,40,0.349)" stroke-width="2.7" stroke-linecap="round"/>
  <line x1="340.1" y1="400.0" x2="343.8" y2="398.7" stroke="rgba(26,31,40,0.348)" stroke-width="2.6" stroke-linecap="round"/>
  <line x1="343.8" y1="398.7" x2="347.4" y2="397.4" stroke="rgba(26,31,40,0.347)" stroke-width="2.6" stroke-linecap="round"/>
  <line x1="347.4" y1="397.4" x2="350.9" y2="396.1" stroke="rgba(26,31,40,0.346)" stroke-width="2.6" stroke-linecap="round"/>
  <line x1="350.9" y1="396.1" x2="354.3" y2="394.7" stroke="rgba(26,31,40,0.345)" stroke-width="2.6" stroke-linecap="round"/>
  <line x1="354.3" y1="394.7" x2="357.7" y2="393.3" stroke="rgba(26,31,40,0.344)" stroke-width="2.6" stroke-linecap="round"/>
  <line x1="357.7" y1="393.3" x2="361.0" y2="391.9" stroke="rgba(26,31,40,0.343)" stroke-width="2.6" stroke-linecap="round"/>
  <line x1="361.0" y1="391.9" x2="364.2" y2="390.5" stroke="rgba(26,31,40,0.342)" stroke-width="2.6" stroke-linecap="round"/>
  <line x1="364.2" y1="390.5" x2="367.3" y2="389.0" stroke="rgba(26,31,40,0.341)" stroke-width="2.6" stroke-linecap="round"/>
  <line x1="367.3" y1="389.0" x2="370.4" y2="387.5" stroke="rgba(26,31,40,0.341)" stroke-width="2.6" stroke-linecap="round"/>
  <line x1="370.4" y1="387.5" x2="373.4" y2="386.0" stroke="rgba(26,31,40,0.340)" stroke-width="2.6" stroke-linecap="round"/>
  <line x1="373.4" y1="386.0" x2="376.3" y2="384.4" stroke="rgba(26,31,40,0.339)" stroke-width="2.6" stroke-linecap="round"/>
  <line x1="376.3" y1="384.4" x2="379.2" y2="382.8" stroke="rgba(26,31,40,0.338)" stroke-width="2.6" stroke-linecap="round"/>
  <line x1="379.2" y1="382.8" x2="382.0" y2="381.3" stroke="rgba(26,31,40,0.337)" stroke-width="2.6" stroke-linecap="round"/>
  <line x1="382.0" y1="381.3" x2="384.7" y2="379.7" stroke="rgba(26,31,40,0.335)" stroke-width="2.6" stroke-linecap="round"/>
  <line x1="384.7" y1="379.7" x2="387.4" y2="378.0" stroke="rgba(26,31,40,0.334)" stroke-width="2.6" stroke-linecap="round"/>
  <line x1="387.4" y1="378.0" x2="390.0" y2="376.4" stroke="rgba(26,31,40,0.333)" stroke-width="2.6" stroke-linecap="round"/>
  <line x1="390.0" y1="376.4" x2="392.6" y2="374.8" stroke="rgba(26,31,40,0.332)" stroke-width="2.5" stroke-linecap="round"/>
  <line x1="392.6" y1="374.8" x2="395.0" y2="373.1" stroke="rgba(26,31,40,0.331)" stroke-width="2.5" stroke-linecap="round"/>
  <line x1="395.0" y1="373.1" x2="397.5" y2="371.4" stroke="rgba(26,31,40,0.330)" stroke-width="2.5" stroke-linecap="round"/>
  <line x1="397.5" y1="371.4" x2="399.8" y2="369.7" stroke="rgba(26,31,40,0.329)" stroke-width="2.5" stroke-linecap="round"/>
  <line x1="399.8" y1="369.7" x2="402.1" y2="368.0" stroke="rgba(26,31,40,0.328)" stroke-width="2.5" stroke-linecap="round"/>
  <line x1="402.1" y1="368.0" x2="404.4" y2="366.3" stroke="rgba(26,31,40,0.327)" stroke-width="2.5" stroke-linecap="round"/>
  <line x1="404.4" y1="366.3" x2="406.6" y2="364.6" stroke="rgba(26,31,40,0.326)" stroke-width="2.5" stroke-linecap="round"/>
  <line x1="406.6" y1="364.6" x2="408.7" y2="362.9" stroke="rgba(26,31,40,0.325)" stroke-width="2.5" stroke-linecap="round"/>
  <line x1="408.7" y1="362.9" x2="410.8" y2="361.2" stroke="rgba(26,31,40,0.324)" stroke-width="2.5" stroke-linecap="round"/>
  <line x1="410.8" y1="361.2" x2="412.8" y2="359.4" stroke="rgba(26,31,40,0.323)" stroke-width="2.5" stroke-linecap="round"/>
  <line x1="412.8" y1="359.4" x2="414.8" y2="357.7" stroke="rgba(26,31,40,0.321)" stroke-width="2.5" stroke-linecap="round"/>
  <line x1="414.8" y1="357.7" x2="416.7" y2="355.9" stroke="rgba(26,31,40,0.320)" stroke-width="2.5" stroke-linecap="round"/>
  <line x1="416.7" y1="355.9" x2="418.6" y2="354.2" stroke="rgba(26,31,40,0.319)" stroke-width="2.5" stroke-linecap="round"/>
  <line x1="418.6" y1="354.2" x2="420.5" y2="352.4" stroke="rgba(26,31,40,0.318)" stroke-width="2.4" stroke-linecap="round"/>
  <line x1="420.5" y1="352.4" x2="422.2" y2="350.6" stroke="rgba(26,31,40,0.317)" stroke-width="2.4" stroke-linecap="round"/>
  <line x1="422.2" y1="350.6" x2="424.0" y2="348.9" stroke="rgba(26,31,40,0.316)" stroke-width="2.4" stroke-linecap="round"/>
  <line x1="424.0" y1="348.9" x2="425.7" y2="347.1" stroke="rgba(26,31,40,0.315)" stroke-width="2.4" stroke-linecap="round"/>
  <line x1="425.7" y1="347.1" x2="427.3" y2="345.3" stroke="rgba(26,31,40,0.314)" stroke-width="2.4" stroke-linecap="round"/>
  <line x1="427.3" y1="345.3" x2="428.9" y2="343.5" stroke="rgba(26,31,40,0.313)" stroke-width="2.4" stroke-linecap="round"/>
  <line x1="428.9" y1="343.5" x2="430.4" y2="341.7" stroke="rgba(26,31,40,0.311)" stroke-width="2.4" stroke-linecap="round"/>
  <line x1="430.4" y1="341.7" x2="432.0" y2="340.0" stroke="rgba(26,31,40,0.310)" stroke-width="2.4" stroke-linecap="round"/>
  <line x1="432.0" y1="340.0" x2="433.4" y2="338.2" stroke="rgba(26,31,40,0.309)" stroke-width="2.4" stroke-linecap="round"/>
  <line x1="433.4" y1="338.2" x2="434.8" y2="336.4" stroke="rgba(26,31,40,0.308)" stroke-width="2.4" stroke-linecap="round"/>
  <line x1="434.8" y1="336.4" x2="436.2" y2="334.6" stroke="rgba(26,31,40,0.307)" stroke-width="2.4" stroke-linecap="round"/>
  <line x1="436.2" y1="334.6" x2="437.6" y2="332.8" stroke="rgba(26,31,40,0.306)" stroke-width="2.4" stroke-linecap="round"/>
  <line x1="437.6" y1="332.8" x2="438.9" y2="331.0" stroke="rgba(26,31,40,0.305)" stroke-width="2.4" stroke-linecap="round"/>
  <line x1="438.9" y1="331.0" x2="440.1" y2="329.2" stroke="rgba(26,31,40,0.304)" stroke-width="2.3" stroke-linecap="round"/>
  <line x1="440.1" y1="329.2" x2="441.4" y2="327.4" stroke="rgba(26,31,40,0.303)" stroke-width="2.3" stroke-linecap="round"/>
  <line x1="441.4" y1="327.4" x2="442.5" y2="325.6" stroke="rgba(26,31,40,0.302)" stroke-width="2.3" stroke-linecap="round"/>
  <line x1="442.5" y1="325.6" x2="443.7" y2="323.8" stroke="rgba(26,31,40,0.300)" stroke-width="2.3" stroke-linecap="round"/>
  <line x1="443.7" y1="323.8" x2="444.8" y2="322.0" stroke="rgba(26,31,40,0.299)" stroke-width="2.3" stroke-linecap="round"/>
  <line x1="444.8" y1="322.0" x2="445.9" y2="320.2" stroke="rgba(26,31,40,0.298)" stroke-width="2.3" stroke-linecap="round"/>
  <line x1="445.9" y1="320.2" x2="446.9" y2="318.5" stroke="rgba(26,31,40,0.297)" stroke-width="2.3" stroke-linecap="round"/>
  <line x1="446.9" y1="318.5" x2="447.9" y2="316.7" stroke="rgba(26,31,40,0.296)" stroke-width="2.3" stroke-linecap="round"/>
  <line x1="447.9" y1="316.7" x2="448.9" y2="314.9" stroke="rgba(26,31,40,0.295)" stroke-width="2.3" stroke-linecap="round"/>
  <line x1="448.9" y1="314.9" x2="449.9" y2="313.1" stroke="rgba(26,31,40,0.294)" stroke-width="2.3" stroke-linecap="round"/>
  <line x1="449.9" y1="313.1" x2="450.8" y2="311.3" stroke="rgba(26,31,40,0.293)" stroke-width="2.3" stroke-linecap="round"/>
  <line x1="450.8" y1="311.3" x2="451.6" y2="309.5" stroke="rgba(26,31,40,0.292)" stroke-width="2.3" stroke-linecap="round"/>
  <line x1="451.6" y1="309.5" x2="452.5" y2="307.7" stroke="rgba(26,31,40,0.291)" stroke-width="2.3" stroke-linecap="round"/>
  <line x1="452.5" y1="307.7" x2="453.3" y2="305.9" stroke="rgba(26,31,40,0.290)" stroke-width="2.3" stroke-linecap="round"/>
  <line x1="453.3" y1="305.9" x2="454.0" y2="304.1" stroke="rgba(26,31,40,0.288)" stroke-width="2.2" stroke-linecap="round"/>
  <line x1="454.0" y1="304.1" x2="454.8" y2="302.3" stroke="rgba(26,31,40,0.287)" stroke-width="2.2" stroke-linecap="round"/>
  <line x1="454.8" y1="302.3" x2="455.5" y2="300.5" stroke="rgba(26,31,40,0.286)" stroke-width="2.2" stroke-linecap="round"/>
  <line x1="455.5" y1="300.5" x2="456.2" y2="298.7" stroke="rgba(26,31,40,0.285)" stroke-width="2.2" stroke-linecap="round"/>
  <line x1="456.2" y1="298.7" x2="456.8" y2="297.0" stroke="rgba(26,31,40,0.284)" stroke-width="2.2" stroke-linecap="round"/>
  <line x1="456.8" y1="297.0" x2="457.5" y2="295.2" stroke="rgba(26,31,40,0.283)" stroke-width="2.2" stroke-linecap="round"/>
  <line x1="457.5" y1="295.2" x2="458.1" y2="293.4" stroke="rgba(26,31,40,0.282)" stroke-width="2.2" stroke-linecap="round"/>
  <line x1="458.1" y1="293.4" x2="458.6" y2="291.6" stroke="rgba(26,31,40,0.281)" stroke-width="2.2" stroke-linecap="round"/>
  <line x1="458.6" y1="291.6" x2="459.1" y2="289.8" stroke="rgba(26,31,40,0.280)" stroke-width="2.2" stroke-linecap="round"/>
  <line x1="459.1" y1="289.8" x2="459.7" y2="288.0" stroke="rgba(26,31,40,0.279)" stroke-width="2.2" stroke-linecap="round"/>
  <line x1="459.7" y1="288.0" x2="460.1" y2="286.2" stroke="rgba(26,31,40,0.278)" stroke-width="2.2" stroke-linecap="round"/>
  <line x1="460.1" y1="286.2" x2="460.6" y2="284.5" stroke="rgba(26,31,40,0.277)" stroke-width="2.2" stroke-linecap="round"/>
  <line x1="460.6" y1="284.5" x2="461.0" y2="282.7" stroke="rgba(26,31,40,0.276)" stroke-width="2.2" stroke-linecap="round"/>
  <line x1="461.0" y1="282.7" x2="461.4" y2="280.9" stroke="rgba(26,31,40,0.275)" stroke-width="2.2" stroke-linecap="round"/>
  <line x1="461.4" y1="280.9" x2="461.7" y2="279.1" stroke="rgba(26,31,40,0.274)" stroke-width="2.1" stroke-linecap="round"/>
  <line x1="461.7" y1="279.1" x2="462.1" y2="277.3" stroke="rgba(26,31,40,0.273)" stroke-width="2.1" stroke-linecap="round"/>
  <line x1="462.1" y1="277.3" x2="462.4" y2="275.6" stroke="rgba(26,31,40,0.272)" stroke-width="2.1" stroke-linecap="round"/>
  <line x1="462.4" y1="275.6" x2="462.7" y2="273.8" stroke="rgba(26,31,40,0.270)" stroke-width="2.1" stroke-linecap="round"/>
  <line x1="462.7" y1="273.8" x2="462.9" y2="272.0" stroke="rgba(26,31,40,0.269)" stroke-width="2.1" stroke-linecap="round"/>
  <line x1="462.9" y1="272.0" x2="463.2" y2="270.2" stroke="rgba(26,31,40,0.268)" stroke-width="2.1" stroke-linecap="round"/>
  <line x1="463.2" y1="270.2" x2="463.3" y2="268.4" stroke="rgba(26,31,40,0.267)" stroke-width="2.1" stroke-linecap="round"/>
  <line x1="463.3" y1="268.4" x2="463.5" y2="266.7" stroke="rgba(26,31,40,0.266)" stroke-width="2.1" stroke-linecap="round"/>
  <line x1="463.5" y1="266.7" x2="463.7" y2="264.9" stroke="rgba(26,31,40,0.265)" stroke-width="2.1" stroke-linecap="round"/>
  <line x1="463.7" y1="264.9" x2="463.8" y2="263.1" stroke="rgba(26,31,40,0.264)" stroke-width="2.1" stroke-linecap="round"/>
  <line x1="463.8" y1="263.1" x2="463.9" y2="261.3" stroke="rgba(26,31,40,0.263)" stroke-width="2.1" stroke-linecap="round"/>
  <line x1="463.9" y1="261.3" x2="463.9" y2="259.6" stroke="rgba(26,31,40,0.262)" stroke-width="2.1" stroke-linecap="round"/>
  <line x1="463.9" y1="259.6" x2="464.0" y2="257.8" stroke="rgba(26,31,40,0.261)" stroke-width="2.1" stroke-linecap="round"/>
  <line x1="464.0" y1="257.8" x2="464.0" y2="256.0" stroke="rgba(26,31,40,0.260)" stroke-width="2.1" stroke-linecap="round"/>
  <polyline points="244.2,98.8 261.0,99.9 276.8,101.9 291.8,104.6 305.8,107.9 318.8,111.7 330.9,115.9 342.1,120.5 352.5,125.4 362.0,130.5 370.8,135.7 378.8,141.1 386.2,146.5 392.8,152.0 398.9,157.4 404.4,162.9 409.4,168.4 413.9,173.8 418.0,179.0 422.0,183.6 425.8,188.2 429.2,192.9 432.3,197.5 435.2,202.1 437.7,206.8 440.0,211.4 442.1,216.1 443.8,220.7 445.4,225.3 446.7,230.0 447.8,234.6 448.6,239.2 449.3,243.9 449.7,248.5 449.9,253.1 449.9,257.7 449.7,262.3 449.3,266.9 448.7,271.5 447.8,276.1 446.7,280.7 445.4,285.4 443.9,290.0 442.1,294.6 440.0,299.2 437.7,303.8 435.2,308.4 432.4,313.0 429.2,317.6 425.8,322.2 422.1,326.7 418.0,331.2 413.5,335.7 408.7,340.1 403.6,344.5 398.0,348.8 391.9,353.0 385.4,357.1 378.4,361.0 371.0,364.8 363.0,368.5 354.4,371.8 345.3,374.9 335.6,377.7 325.2,380.1 314.3,382.1 302.8,383.6 290.6,384.5 277.8,384.8 264.5,384.3 250.7,383.0 236.5,380.7 221.9,377.4 207.1,373.0 192.3,367.4 177.7,360.5 163.5,352.2 149.9,342.6 137.3,331.7 125.9,319.5 116.0,306.1 108.0,291.7 102.0,276.4 98.3,260.6 97.0,244.4 98.1,228.3 101.8,212.4 107.8,197.1 116.1,182.7 126.3,169.4" fill="none" stroke="rgba(45,109,163,0.063)" stroke-width="0.4" stroke-linecap="round"/>
  <polyline points="244.2,98.8 260.6,99.8 276.2,101.6 290.9,104.2 304.6,107.3 317.5,111.0 329.5,115.1 340.6,119.5 350.9,124.2 360.4,129.1 369.2,134.1 377.3,139.3 384.7,144.6 391.4,149.9 397.6,155.3 403.2,160.7 408.3,166.0 412.9,171.3 417.1,176.5 421.3,181.0 425.1,185.6 428.6,190.2 431.9,194.8 434.8,199.4 437.4,204.0 439.8,208.7 442.0,213.3 443.9,217.9 445.5,222.5 447.0,227.1 448.2,231.7 449.1,236.3 449.9,240.9 450.5,245.5 450.8,250.1 451.0,254.6 450.9,259.2 450.6,263.8 450.1,268.4 449.4,273.0 448.5,277.5 447.4,282.1 446.1,286.7 444.5,291.3 442.7,295.9 440.6,300.4 438.3,305.0 435.7,309.6 432.9,314.2 429.8,318.7 426.3,323.3 422.6,327.8 418.5,332.3 414.1,336.7 409.4,341.1 404.2,345.5 398.7,349.7 392.7,353.9 386.3,358.0 379.4,362.0 372.1,365.8 364.2,369.4 355.8,372.8 346.8,376.0 337.3,378.8 327.2,381.3 316.5,383.4 305.1,385.0 293.2,386.1 280.7,386.6 267.6,386.3 254.0,385.3 240.0,383.4 225.7,380.6 211.0,376.6 196.3,371.6 181.7,365.3 167.4,357.7 153.5,348.8 140.5,338.6 128.5,327.1 117.8,314.4 108.8,300.6 101.7,285.9 96.7,270.5 94.0,254.6 93.6,238.5 95.7,222.6 100.2,207.0 106.9,192.1" fill="none" stroke="rgba(45,109,163,0.130)" stroke-width="0.5" stroke-linecap="round"/>
  <polyline points="244.2,98.8 260.3,99.7 275.5,101.4 290.0,103.8 303.5,106.8 316.2,110.3 328.1,114.2 339.1,118.4 349.4,122.9 358.9,127.7 367.6,132.6 375.7,137.6 383.1,142.8 390.0,148.0 396.2,153.2 401.9,158.4 407.1,163.7 411.8,168.9 416.2,174.0 420.4,178.5 424.4,183.0 428.0,187.6 431.3,192.2 434.4,196.7 437.1,201.3 439.6,205.9 441.9,210.5 443.9,215.1 445.6,219.7 447.2,224.2 448.5,228.8 449.6,233.4 450.5,237.9 451.1,242.5 451.6,247.0 451.9,251.6 452.0,256.1 451.8,260.7 451.5,265.2 451.0,269.8 450.2,274.3 449.3,278.9 448.1,283.4 446.7,288.0 445.1,292.5 443.3,297.1 441.2,301.6 438.9,306.2 436.3,310.7 433.4,315.3 430.3,319.8 426.9,324.3 423.2,328.8 419.1,333.3 414.8,337.7 410.1,342.1 405.0,346.4 399.5,350.7 393.6,354.8 387.3,358.9 380.5,362.9 373.3,366.7 365.5,370.3 357.2,373.7 348.4,376.9 339.1,379.8 329.2,382.4 318.7,384.6 307.6,386.4 295.9,387.6 283.6,388.3 270.8,388.3 257.5,387.6 243.7,386.1 229.5,383.6 215.1,380.2 200.4,375.6 185.8,369.9 171.4,363.0 157.4,354.8 144.0,345.3 131.5,334.5 120.2,322.5 110.3,309.4 102.2,295.3 96.0,280.4 91.9,264.8 90.1,249.0 90.6,233.0 93.5,217.3" fill="none" stroke="rgba(45,109,163,0.197)" stroke-width="0.7" stroke-linecap="round"/>
  <polyline points="244.2,98.8 259.9,99.6 274.9,101.2 289.1,103.5 302.4,106.3 315.0,109.6 326.7,113.3 337.6,117.4 347.8,121.7 357.3,126.3 366.1,131.0 374.2,135.9 381.6,140.9 388.5,146.0 394.8,151.1 400.6,156.2 405.9,161.4 410.8,166.5 415.2,171.5 419.6,175.9 423.6,180.5 427.3,185.0 430.7,189.5 433.9,194.1 436.7,198.6 439.3,203.2 441.7,207.7 443.8,212.3 445.6,216.8 447.3,221.4 448.7,225.9 449.9,230.4 450.9,235.0 451.7,239.5 452.3,244.0 452.7,248.6 452.9,253.1 453.0,257.6 452.8,262.1 452.4,266.6 451.8,271.2 451.0,275.7 450.0,280.2 448.8,284.7 447.4,289.2 445.7,293.8 443.9,298.3 441.8,302.8 439.4,307.3 436.9,311.8 434.0,316.4 430.9,320.9 427.5,325.3 423.8,329.8 419.8,334.2 415.5,338.6 410.8,343.0 405.7,347.3 400.3,351.6 394.5,355.7 388.3,359.8 381.6,363.7 374.5,367.6 366.9,371.2 358.8,374.7 350.1,377.9 340.9,380.9 331.2,383.5 320.9,385.8 310.0,387.7 298.6,389.1 286.6,390.0 274.0,390.3 260.9,389.8 247.4,388.6 233.4,386.6 219.1,383.6 204.7,379.5 190.1,374.4 175.7,368.1 161.5,360.5 147.9,351.8 135.0,341.7 123.1,330.4 112.5,318.0 103.3,304.6 96.0,290.2 90.7,275.1 87.4,259.5 86.5,243.7" fill="none" stroke="rgba(45,109,163,0.266)" stroke-width="0.8" stroke-linecap="round"/>
  <polyline points="244.2,98.8 259.6,99.5 274.3,101.0 288.2,103.1 301.4,105.8 313.7,108.9 325.3,112.5 336.2,116.4 346.3,120.5 355.7,124.9 364.5,129.5 372.6,134.3 380.1,139.1 387.1,144.0 393.5,149.0 399.3,154.0 404.7,159.0 409.7,164.1 414.3,169.0 418.7,173.4 422.8,177.9 426.6,182.4 430.1,186.9 433.3,191.4 436.3,195.9 439.0,200.4 441.4,205.0 443.6,209.5 445.6,214.0 447.4,218.5 448.9,223.0 450.2,227.5 451.3,232.0 452.3,236.5 453.0,241.0 453.5,245.5 453.8,250.0 454.0,254.5 453.9,259.0 453.7,263.5 453.2,268.0 452.6,272.5 451.8,277.0 450.7,281.5 449.5,286.0 448.0,290.4 446.4,294.9 444.5,299.4 442.4,303.9 440.1,308.4 437.5,312.9 434.6,317.4 431.5,321.9 428.1,326.3 424.5,330.8 420.5,335.2 416.2,339.5 411.6,343.9 406.6,348.2 401.2,352.4 395.5,356.6 389.4,360.6 382.8,364.6 375.8,368.4 368.3,372.1 360.3,375.6 351.9,378.8 342.9,381.9 333.3,384.6 323.2,387.0 312.6,389.0 301.4,390.6 289.6,391.6 277.3,392.1 264.4,392.0 251.1,391.1 237.4,389.4 223.3,386.8 209.0,383.3 194.5,378.7 180.1,373.0 165.9,366.1 152.0,358.0 138.8,348.7 126.4,338.1 115.1,326.4 105.2,313.7 96.8,299.9 90.3,285.3 85.7,270.2" fill="none" stroke="rgba(45,109,163,0.333)" stroke-width="0.9" stroke-linecap="round"/>
  <polyline points="244.2,98.8 259.3,99.4 273.7,100.8 287.4,102.7 300.3,105.2 312.5,108.2 324.0,111.6 334.7,115.4 344.8,119.4 354.2,123.6 362.9,128.0 371.1,132.6 378.6,137.3 385.6,142.1 392.1,146.9 398.0,151.8 403.5,156.8 408.6,161.7 413.3,166.5 417.8,170.9 422.0,175.3 425.9,179.8 429.5,184.3 432.8,188.7 435.8,193.2 438.6,197.7 441.2,202.2 443.5,206.7 445.5,211.2 447.4,215.7 449.0,220.2 450.5,224.7 451.7,229.1 452.7,233.6 453.5,238.1 454.2,242.5 454.6,247.0 454.9,251.5 455.0,255.9 454.9,260.4 454.6,264.8 454.1,269.3 453.4,273.8 452.5,278.2 451.5,282.7 450.2,287.1 448.7,291.6 447.1,296.1 445.2,300.5 443.0,305.0 440.7,309.5 438.1,313.9 435.3,318.4 432.2,322.8 428.8,327.3 425.2,331.7 421.2,336.1 417.0,340.4 412.4,344.7 407.5,349.0 402.2,353.2 396.5,357.4 390.5,361.4 384.0,365.4 377.1,369.2 369.8,372.9 362.0,376.4 353.6,379.7 344.8,382.8 335.5,385.6 325.6,388.1 315.2,390.3 304.2,392.0 292.7,393.2 280.6,393.9 268.0,394.0 255.0,393.5 241.5,392.1 227.6,390.0 213.4,386.9 199.1,382.8 184.7,377.7 170.4,371.4 156.4,364.0 142.9,355.4 130.1,345.6 118.3,334.6 107.6,322.6 98.3,309.5 90.7,295.5" fill="none" stroke="rgba(45,109,163,0.400)" stroke-width="1.0" stroke-linecap="round"/>
  <polyline points="244.2,98.8 259.0,99.3 273.1,100.5 286.5,102.4 299.3,104.7 311.3,107.6 322.7,110.8 333.3,114.4 343.3,118.2 352.7,122.3 361.4,126.6 369.5,131.0 377.1,135.5 384.1,140.2 390.7,144.9 396.7,149.7 402.3,154.5 407.5,159.3 412.2,164.0 416.8,168.4 421.1,172.8 425.1,177.2 428.8,181.6 432.2,186.1 435.3,190.5 438.2,195.0 440.8,199.5 443.2,203.9 445.4,208.4 447.4,212.9 449.1,217.3 450.6,221.8 452.0,226.2 453.1,230.7 454.0,235.1 454.8,239.5 455.4,244.0 455.7,248.4 455.9,252.8 456.0,257.3 455.8,261.7 455.5,266.1 454.9,270.6 454.2,275.0 453.3,279.4 452.2,283.9 450.9,288.3 449.4,292.7 447.7,297.2 445.8,301.6 443.7,306.0 441.4,310.5 438.8,314.9 435.9,319.3 432.9,323.8 429.5,328.2 425.9,332.6 422.0,336.9 417.8,341.3 413.3,345.6 408.4,349.8 403.2,354.0 397.6,358.2 391.7,362.2 385.3,366.2 378.5,370.0 371.3,373.7 363.6,377.3 355.5,380.6 346.8,383.8 337.7,386.7 328.0,389.2 317.8,391.5 307.1,393.3 295.8,394.8 284.0,395.7 271.6,396.0 258.8,395.7 245.6,394.8 231.9,393.0 217.9,390.3 203.7,386.8 189.4,382.2 175.2,376.6 161.1,369.8 147.4,361.9 134.2,352.8 121.9,342.6 110.6,331.2 100.5,318.8" fill="none" stroke="rgba(45,109,163,0.468)" stroke-width="1.2" stroke-linecap="round"/>
  <polyline points="244.2,98.8 258.6,99.2 272.5,100.3 285.7,102.0 298.3,104.2 310.1,106.9 321.3,110.0 331.9,113.4 341.8,117.1 351.1,121.0 359.9,125.1 368.0,129.4 375.6,133.8 382.7,138.3 389.3,142.9 395.4,147.5 401.1,152.2 406.3,156.9 411.2,161.6 415.9,165.9 420.2,170.3 424.3,174.6 428.0,179.0 431.5,183.5 434.8,187.9 437.7,192.3 440.5,196.7 442.9,201.2 445.2,205.6 447.3,210.1 449.1,214.5 450.7,218.9 452.2,223.3 453.4,227.7 454.5,232.2 455.3,236.6 456.0,241.0 456.5,245.4 456.8,249.8 457.0,254.2 456.9,258.6 456.7,263.0 456.3,267.4 455.8,271.8 455.0,276.2 454.1,280.6 453.0,285.0 451.7,289.4 450.2,293.8 448.4,298.2 446.5,302.6 444.4,307.0 442.1,311.5 439.5,315.9 436.7,320.3 433.6,324.7 430.3,329.0 426.7,333.4 422.8,337.7 418.7,342.1 414.2,346.4 409.4,350.6 404.3,354.8 398.8,358.9 392.9,363.0 386.7,366.9 380.0,370.8 372.9,374.5 365.4,378.1 357.4,381.5 348.9,384.7 340.0,387.6 330.5,390.3 320.5,392.7 310.0,394.7 298.9,396.3 287.4,397.4 275.3,398.0 262.7,398.0 249.7,397.3 236.3,395.9 222.5,393.7 208.5,390.6 194.3,386.6 180.1,381.5 165.9,375.4 152.1,368.2 138.7,359.8 125.9,350.3 114.0,339.7" fill="none" stroke="rgba(45,109,163,0.536)" stroke-width="1.3" stroke-linecap="round"/>
  <polyline points="244.2,98.8 258.3,99.1 271.9,100.1 284.9,101.7 297.3,103.8 309.0,106.3 320.1,109.2 330.5,112.4 340.4,115.9 349.6,119.7 358.3,123.7 366.5,127.8 374.1,132.0 381.2,136.4 387.9,140.9 394.0,145.4 399.8,150.0 405.1,154.6 410.1,159.1 414.9,163.4 419.3,167.7 423.4,172.1 427.3,176.5 430.9,180.8 434.2,185.2 437.2,189.6 440.0,194.0 442.6,198.4 445.0,202.8 447.1,207.3 449.0,211.7 450.8,216.1 452.3,220.4 453.7,224.8 454.8,229.2 455.8,233.6 456.6,238.0 457.2,242.4 457.6,246.7 457.9,251.1 458.0,255.5 457.9,259.8 457.7,264.2 457.2,268.6 456.6,273.0 455.8,277.3 454.9,281.7 453.7,286.1 452.4,290.5 450.9,294.8 449.2,299.2 447.2,303.6 445.1,308.0 442.8,312.4 440.2,316.8 437.4,321.1 434.4,325.5 431.1,329.9 427.5,334.2 423.7,338.5 419.6,342.8 415.2,347.1 410.4,351.3 405.4,355.5 400.0,359.6 394.2,363.7 388.1,367.6 381.5,371.5 374.6,375.3 367.2,378.9 359.4,382.3 351.1,385.5 342.3,388.6 333.0,391.3 323.3,393.8 313.0,395.9 302.2,397.7 290.9,399.0 279.0,399.8 266.7,400.1 254.0,399.7 240.8,398.7 227.2,396.9 213.4,394.3 199.3,390.7 185.1,386.3 171.0,380.8 157.1,374.2 143.4,366.6 130.4,357.8" fill="none" stroke="rgba(45,109,163,0.603)" stroke-width="1.4" stroke-linecap="round"/>
  <polyline points="244.2,98.8 258.0,99.0 271.4,99.9 284.1,101.3 296.3,103.3 307.8,105.6 318.8,108.4 329.1,111.5 338.9,114.8 348.1,118.4 356.8,122.2 365.0,126.2 372.6,130.3 379.7,134.6 386.4,138.9 392.7,143.3 398.5,147.7 403.9,152.2 409.0,156.7 413.8,160.9 418.3,165.2 422.6,169.5 426.5,173.9 430.1,178.2 433.5,182.6 436.7,187.0 439.6,191.3 442.2,195.7 444.7,200.1 446.9,204.5 448.9,208.8 450.8,213.2 452.4,217.6 453.8,221.9 455.1,226.3 456.2,230.7 457.1,235.0 457.8,239.4 458.3,243.7 458.7,248.0 458.9,252.4 459.0,256.7 458.9,261.1 458.6,265.4 458.1,269.7 457.5,274.1 456.7,278.4 455.7,282.8 454.5,287.1 453.2,291.5 451.6,295.8 449.9,300.2 448.0,304.6 445.9,308.9 443.5,313.3 441.0,317.6 438.2,322.0 435.2,326.3 431.9,330.7 428.4,335.0 424.6,339.3 420.5,343.6 416.2,347.8 411.5,352.0 406.5,356.2 401.2,360.3 395.5,364.4 389.5,368.3 383.1,372.2 376.3,376.0 369.0,379.6 361.4,383.1 353.3,386.4 344.7,389.5 335.6,392.3 326.1,394.9 316.0,397.2 305.4,399.1 294.4,400.6 282.8,401.6 270.7,402.1 258.2,402.1 245.3,401.4 232.0,400.0 218.3,397.8 204.4,394.7 190.3,390.8 176.3,385.9 162.3,380.0 148.5,373.0" fill="none" stroke="rgba(45,109,163,0.671)" stroke-width="1.6" stroke-linecap="round"/>
  <polyline points="244.2,98.8 257.8,98.9 270.8,99.7 283.4,101.0 295.3,102.8 306.7,105.0 317.5,107.6 327.8,110.5 337.5,113.7 346.7,117.2 355.3,120.8 363.4,124.6 371.1,128.6 378.3,132.7 385.0,136.9 391.3,141.2 397.2,145.5 402.7,149.9 407.9,154.3 412.8,158.5 417.4,162.7 421.7,167.0 425.7,171.3 429.4,175.6 432.9,180.0 436.1,184.3 439.1,188.6 441.8,193.0 444.4,197.3 446.7,201.7 448.8,206.0 450.7,210.4 452.4,214.7 454.0,219.1 455.3,223.4 456.5,227.7 457.5,232.0 458.3,236.4 459.0,240.7 459.5,245.0 459.8,249.3 460.0,253.6 460.0,257.9 459.8,262.2 459.5,266.6 459.0,270.9 458.3,275.2 457.5,279.5 456.5,283.8 455.3,288.1 453.9,292.5 452.4,296.8 450.7,301.1 448.7,305.4 446.6,309.8 444.3,314.1 441.8,318.4 439.0,322.8 436.0,327.1 432.8,331.4 429.3,335.7 425.6,340.0 421.5,344.3 417.2,348.5 412.7,352.7 407.8,356.9 402.5,361.0 397.0,365.0 391.0,369.0 384.7,372.9 378.1,376.7 371.0,380.3 363.5,383.8 355.5,387.2 347.1,390.4 338.2,393.3 328.9,396.0 319.1,398.3 308.7,400.4 297.9,402.1 286.6,403.3 274.8,404.1 262.6,404.3 249.9,403.9 236.8,402.9 223.3,401.1 209.6,398.6 195.7,395.2 181.7,390.9 167.7,385.6" fill="none" stroke="rgba(45,109,163,0.738)" stroke-width="1.7" stroke-linecap="round"/>
  <polyline points="244.2,98.8 257.5,98.8 270.3,99.5 282.6,100.7 294.4,102.3 305.6,104.4 316.3,106.8 326.4,109.6 336.1,112.6 345.2,115.9 353.8,119.4 361.9,123.1 369.6,126.9 376.8,130.9 383.6,134.9 389.9,139.1 395.9,143.3 401.5,147.6 406.7,151.9 411.7,156.0 416.4,160.3 420.7,164.5 424.8,168.8 428.6,173.0 432.2,177.3 435.5,181.6 438.5,186.0 441.4,190.3 444.0,194.6 446.4,198.9 448.6,203.2 450.6,207.6 452.4,211.9 454.0,216.2 455.5,220.5 456.8,224.8 457.9,229.1 458.8,233.4 459.6,237.7 460.2,242.0 460.6,246.2 460.9,250.5 461.0,254.8 460.9,259.1 460.7,263.4 460.4,267.7 459.9,271.9 459.2,276.2 458.3,280.5 457.3,284.8 456.1,289.1 454.7,293.4 453.2,297.7 451.5,302.0 449.5,306.3 447.4,310.6 445.1,314.9 442.6,319.2 439.8,323.5 436.9,327.8 433.7,332.1 430.2,336.4 426.6,340.7 422.6,344.9 418.4,349.1 413.9,353.3 409.0,357.5 403.9,361.6 398.4,365.6 392.6,369.6 386.4,373.5 379.9,377.3 372.9,381.0 365.6,384.6 357.8,388.0 349.6,391.2 340.9,394.2 331.8,397.0 322.2,399.5 312.1,401.7 301.5,403.5 290.5,405.0 278.9,406.0 266.9,406.5 254.5,406.4 241.6,405.7 228.4,404.4 214.9,402.3 201.1,399.4 187.2,395.6" fill="none" stroke="rgba(45,109,163,0.805)" stroke-width="1.8" stroke-linecap="round"/>
  <polyline points="244.2,98.8 257.2,98.8 269.8,99.3 281.8,100.3 293.4,101.8 304.5,103.7 315.1,106.0 325.1,108.7 334.7,111.5 343.7,114.7 352.3,118.0 360.4,121.6 368.1,125.3 375.3,129.1 382.1,133.0 388.5,137.0 394.6,141.1 400.2,145.3 405.6,149.5 410.6,153.6 415.3,157.8 419.8,162.0 423.9,166.2 427.8,170.5 431.4,174.7 434.8,179.0 437.9,183.3 440.9,187.6 443.6,191.9 446.1,196.2 448.3,200.5 450.4,204.7 452.3,209.0 454.1,213.3 455.6,217.6 457.0,221.9 458.2,226.1 459.2,230.4 460.1,234.7 460.8,238.9 461.3,243.2 461.7,247.4 461.9,251.7 462.0,255.9 461.9,260.2 461.7,264.5 461.3,268.7 460.7,273.0 460.0,277.2 459.1,281.5 458.1,285.7 456.9,290.0 455.5,294.3 454.0,298.6 452.3,302.8 450.3,307.1 448.2,311.4 445.9,315.7 443.4,320.0 440.7,324.2 437.8,328.5 434.6,332.8 431.2,337.0 427.6,341.3 423.7,345.5 419.5,349.7 415.1,353.9 410.4,358.1 405.3,362.2 399.9,366.2 394.2,370.2 388.2,374.1 381.8,377.9 375.0,381.7 367.8,385.2 360.2,388.7 352.2,392.0 343.7,395.1 334.8,397.9 325.4,400.6 315.5,402.9 305.2,404.9 294.4,406.5 283.1,407.8 271.4,408.5 259.2,408.7 246.6,408.4 233.6,407.4 220.3,405.8 206.7,403.4" fill="none" stroke="rgba(45,109,163,0.874)" stroke-width="1.9" stroke-linecap="round"/>
  <polyline points="244.2,98.8 256.9,98.7 269.2,99.1 281.1,100.0 292.5,101.4 303.4,103.1 313.9,105.3 323.8,107.7 333.3,110.5 342.3,113.5 350.8,116.7 358.9,120.0 366.6,123.6 373.8,127.3 380.7,131.1 387.1,135.0 393.2,139.0 399.0,143.0 404.4,147.1 409.5,151.2 414.3,155.3 418.8,159.5 423.0,163.7 426.9,167.9 430.6,172.1 434.1,176.4 437.3,180.6 440.3,184.9 443.1,189.2 445.7,193.4 448.1,197.7 450.2,202.0 452.2,206.2 454.0,210.5 455.7,214.7 457.1,219.0 458.4,223.2 459.5,227.4 460.5,231.7 461.3,235.9 461.9,240.1 462.4,244.4 462.8,248.6 463.0,252.8 463.0,257.0 462.9,261.3 462.6,265.5 462.2,269.7 461.6,273.9 460.9,278.2 460.0,282.4 458.9,286.6 457.7,290.9 456.4,295.1 454.8,299.4 453.1,303.6 451.2,307.9 449.1,312.1 446.8,316.4 444.3,320.7 441.7,324.9 438.8,329.2 435.6,333.4 432.3,337.7 428.7,341.9 424.9,346.1 420.8,350.3 416.4,354.5 411.7,358.6 406.8,362.7 401.5,366.8 395.9,370.8 390.0,374.7 383.7,378.5 377.1,382.3 370.0,385.9 362.6,389.4 354.8,392.7 346.5,395.9 337.8,398.9 328.6,401.6 319.0,404.1 308.9,406.2 298.4,408.0 287.3,409.5 275.9,410.5 263.9,411.0 251.6,411.0 238.8,410.4 225.8,409.1" fill="none" stroke="rgba(45,109,163,0.941)" stroke-width="2.1" stroke-linecap="round"/>
  <polyline points="244.2,98.8 256.6,98.6 268.7,98.9 280.4,99.6 291.6,100.9 302.4,102.5 312.7,104.5 322.5,106.8 331.9,109.4 340.8,112.3 349.3,115.3 357.4,118.5 365.1,121.9 372.3,125.5 379.2,129.2 385.7,132.9 391.9,136.8 397.7,140.7 403.2,144.7 408.3,148.8 413.2,152.9 417.7,157.0 422.0,161.2 426.1,165.4 429.8,169.6 433.4,173.8 436.7,178.0 439.8,182.2 442.6,186.5 445.3,190.7 447.7,194.9 450.0,199.2 452.0,203.4 453.9,207.6 455.7,211.9 457.2,216.1 458.6,220.3 459.8,224.5 460.9,228.7 461.8,232.9 462.5,237.1 463.1,241.3 463.5,245.5 463.8,249.7 464.0,253.9 464.0,258.1 463.8,262.3 463.5,266.5 463.1,270.7 462.5,274.9 461.8,279.1 460.9,283.3 459.8,287.5 458.6,291.7 457.2,295.9 455.7,300.1 453.9,304.4 452.0,308.6 450.0,312.8 447.7,317.1 445.3,321.3 442.6,325.5 439.8,329.8 436.7,334.0 433.4,338.2 429.8,342.4 426.1,346.6 422.0,350.8 417.7,355.0 413.2,359.1 408.3,363.2 403.2,367.3 397.7,371.3 391.9,375.2 385.7,379.1 379.2,382.8 372.3,386.5 365.1,390.1 357.4,393.5 349.3,396.7 340.8,399.7 331.9,402.6 322.5,405.2 312.7,407.5 302.4,409.5 291.6,411.1 280.4,412.4 268.7,413.1 256.6,413.4 244.2,413.2" fill="none" stroke="rgba(45,109,163,1.000)" stroke-width="4.0" stroke-linecap="round"/>
  <polyline points="244.2,98.8 256.4,98.5 268.2,98.7 279.7,99.3 290.7,100.4 301.3,101.9 311.5,103.8 321.2,105.9 330.5,108.4 339.4,111.1 347.9,114.0 355.9,117.1 363.6,120.3 370.9,123.7 377.8,127.3 384.3,130.9 390.5,134.6 396.4,138.5 401.9,142.4 407.1,146.4 412.1,150.4 416.7,154.5 421.1,158.7 425.2,162.8 429.0,167.0 432.6,171.2 436.0,175.4 439.1,179.6 442.1,183.8 444.8,188.0 447.3,192.2 449.7,196.4 451.8,200.6 453.8,204.8 455.6,209.0 457.2,213.2 458.7,217.4 460.0,221.6 461.2,225.7 462.1,229.9 463.0,234.1 463.7,238.3 464.2,242.4 464.6,246.6 464.9,250.8 465.0,254.9 465.0,259.1 464.8,263.3 464.5,267.4 464.0,271.6 463.4,275.8 462.6,279.9 461.7,284.1 460.7,288.3 459.4,292.5 458.1,296.7 456.5,300.9 454.8,305.1 452.9,309.3 450.9,313.5 448.6,317.7 446.2,321.9 443.6,326.1 440.8,330.3 437.8,334.6 434.5,338.8 431.0,343.0 427.3,347.1 423.4,351.3 419.1,355.5 414.7,359.6 409.9,363.7 404.8,367.7 399.5,371.7 393.8,375.7 387.8,379.6 381.4,383.4 374.7,387.1 367.6,390.7 360.1,394.1 352.3,397.4 344.0,400.6 335.2,403.5 326.1,406.2 316.5,408.7 306.4,410.8 295.9,412.7 285.0,414.1 273.6,415.2 261.8,415.8" fill="none" stroke="rgba(45,109,163,0.941)" stroke-width="2.1" stroke-linecap="round"/>
  <polyline points="244.2,98.8 256.1,98.4 267.7,98.4 279.0,99.0 289.8,100.0 300.3,101.3 310.3,103.0 320.0,105.0 329.2,107.3 338.0,109.9 346.4,112.6 354.4,115.6 362.1,118.7 369.4,122.0 376.3,125.4 382.9,128.9 389.1,132.5 395.1,136.2 400.7,140.0 405.9,144.0 410.9,148.0 415.6,152.1 420.1,156.2 424.2,160.3 428.1,164.4 431.8,168.6 435.3,172.7 438.5,176.9 441.5,181.1 444.3,185.3 446.9,189.4 449.3,193.6 451.6,197.8 453.6,202.0 455.5,206.2 457.2,210.3 458.8,214.5 460.2,218.6 461.4,222.8 462.5,226.9 463.4,231.1 464.2,235.2 464.8,239.4 465.3,243.5 465.7,247.7 465.9,251.8 466.0,255.9 465.9,260.1 465.7,264.2 465.4,268.3 464.9,272.5 464.3,276.6 463.5,280.8 462.6,284.9 461.5,289.1 460.3,293.2 458.9,297.4 457.4,301.6 455.7,305.7 453.9,309.9 451.8,314.1 449.6,318.3 447.2,322.5 444.6,326.7 441.9,330.9 438.9,335.1 435.7,339.2 432.3,343.4 428.6,347.6 424.7,351.8 420.6,355.9 416.2,360.0 411.5,364.1 406.6,368.2 401.3,372.2 395.8,376.1 389.9,380.0 383.7,383.9 377.1,387.6 370.2,391.2 362.9,394.8 355.2,398.1 347.1,401.4 338.6,404.4 329.7,407.2 320.3,409.8 310.5,412.1 300.3,414.1 289.6,415.8 278.5,417.1" fill="none" stroke="rgba(45,109,163,0.874)" stroke-width="1.9" stroke-linecap="round"/>
  <polyline points="244.2,98.8 255.9,98.3 267.3,98.2 278.3,98.7 289.0,99.5 299.3,100.7 309.2,102.3 318.7,104.2 327.8,106.3 336.6,108.7 345.0,111.3 353.0,114.1 360.6,117.1 367.9,120.2 374.8,123.5 381.4,126.9 387.7,130.4 393.7,134.0 399.4,137.7 404.7,141.6 409.8,145.6 414.5,149.6 419.0,153.7 423.3,157.8 427.2,161.9 431.0,166.0 434.5,170.1 437.8,174.3 440.9,178.4 443.8,182.6 446.4,186.7 448.9,190.9 451.2,195.0 453.4,199.2 455.3,203.3 457.1,207.5 458.8,211.6 460.2,215.7 461.6,219.9 462.7,224.0 463.8,228.1 464.7,232.2 465.4,236.3 466.0,240.4 466.5,244.6 466.8,248.7 467.0,252.8 467.0,256.9 466.9,261.0 466.7,265.1 466.3,269.2 465.8,273.3 465.2,277.4 464.4,281.5 463.5,285.7 462.4,289.8 461.2,293.9 459.9,298.1 458.3,302.2 456.7,306.4 454.8,310.5 452.8,314.7 450.6,318.8 448.3,323.0 445.7,327.2 443.0,331.3 440.0,335.5 436.9,339.7 433.5,343.9 430.0,348.0 426.1,352.2 422.1,356.3 417.8,360.4 413.2,364.5 408.4,368.6 403.2,372.6 397.8,376.6 392.1,380.5 386.0,384.3 379.6,388.1 372.9,391.8 365.7,395.3 358.2,398.8 350.4,402.1 342.1,405.2 333.4,408.1 324.2,410.9 314.7,413.3 304.7,415.5 294.3,417.4" fill="none" stroke="rgba(45,109,163,0.805)" stroke-width="1.8" stroke-linecap="round"/>
  <polyline points="244.2,98.8 255.6,98.2 266.8,98.0 277.6,98.3 288.1,99.1 298.3,100.1 308.0,101.6 317.5,103.3 326.5,105.3 335.2,107.5 343.5,110.0 351.5,112.7 359.1,115.5 366.4,118.5 373.4,121.6 380.0,124.9 386.3,128.3 392.4,131.7 398.1,135.4 403.5,139.3 408.6,143.2 413.4,147.2 418.0,151.2 422.3,155.3 426.3,159.3 430.1,163.4 433.7,167.5 437.1,171.6 440.2,175.8 443.2,179.9 445.9,184.0 448.5,188.1 450.9,192.3 453.1,196.4 455.1,200.5 457.0,204.6 458.7,208.7 460.3,212.8 461.7,216.9 463.0,221.0 464.1,225.1 465.0,229.2 465.9,233.3 466.6,237.4 467.1,241.5 467.5,245.5 467.8,249.6 468.0,253.7 468.0,257.8 467.9,261.8 467.7,265.9 467.3,270.0 466.8,274.1 466.1,278.2 465.3,282.3 464.4,286.4 463.3,290.5 462.1,294.6 460.8,298.7 459.3,302.8 457.6,306.9 455.8,311.1 453.8,315.2 451.7,319.3 449.3,323.5 446.8,327.6 444.1,331.8 441.2,335.9 438.2,340.1 434.9,344.2 431.4,348.4 427.6,352.5 423.6,356.6 419.4,360.8 415.0,364.8 410.2,368.9 405.2,372.9 399.9,376.9 394.3,380.9 388.4,384.7 382.1,388.5 375.6,392.2 368.6,395.9 361.3,399.4 353.6,402.7 345.6,406.0 337.1,409.0 328.2,411.9 318.9,414.5 309.2,416.9" fill="none" stroke="rgba(45,109,163,0.738)" stroke-width="1.7" stroke-linecap="round"/>
  <polyline points="244.2,98.8 255.4,98.1 266.3,97.8 277.0,98.0 287.3,98.6 297.3,99.6 306.9,100.8 316.2,102.4 325.2,104.3 333.8,106.4 342.1,108.7 350.0,111.2 357.6,113.9 364.9,116.8 371.9,119.8 378.6,122.9 384.9,126.2 391.0,129.5 396.8,133.0 402.2,136.9 407.4,140.8 412.3,144.8 416.9,148.8 421.2,152.8 425.4,156.8 429.2,160.9 432.9,164.9 436.3,169.0 439.5,173.1 442.6,177.2 445.4,181.3 448.0,185.4 450.5,189.5 452.8,193.6 454.9,197.7 456.8,201.8 458.6,205.9 460.3,209.9 461.8,214.0 463.1,218.1 464.3,222.1 465.4,226.2 466.3,230.3 467.1,234.3 467.7,238.4 468.2,242.4 468.6,246.5 468.9,250.5 469.0,254.6 469.0,258.6 468.9,262.7 468.6,266.7 468.2,270.8 467.7,274.8 467.0,278.9 466.3,282.9 465.3,287.0 464.3,291.1 463.1,295.2 461.7,299.3 460.2,303.3 458.6,307.4 456.8,311.6 454.8,315.7 452.7,319.8 450.4,323.9 448.0,328.0 445.3,332.2 442.5,336.3 439.5,340.4 436.2,344.6 432.8,348.7 429.1,352.8 425.3,357.0 421.1,361.1 416.8,365.1 412.1,369.2 407.2,373.2 402.1,377.2 396.6,381.2 390.8,385.1 384.7,388.9 378.3,392.7 371.6,396.4 364.4,399.9 357.0,403.4 349.1,406.7 340.9,409.8 332.2,412.8 323.2,415.6" fill="none" stroke="rgba(45,109,163,0.671)" stroke-width="1.6" stroke-linecap="round"/>
  <polyline points="244.2,98.8 255.1,98.0 265.9,97.6 276.3,97.7 286.4,98.2 296.3,99.0 305.8,100.1 315.0,101.6 323.9,103.3 332.4,105.2 340.7,107.4 348.6,109.8 356.2,112.4 363.4,115.1 370.4,118.0 377.1,121.0 383.5,124.1 389.6,127.3 395.5,130.7 401.0,134.6 406.2,138.4 411.1,142.3 415.8,146.3 420.2,150.3 424.4,154.3 428.3,158.3 432.0,162.4 435.5,166.4 438.8,170.5 441.9,174.5 444.8,178.6 447.5,182.7 450.0,186.7 452.4,190.8 454.6,194.9 456.6,198.9 458.5,203.0 460.2,207.1 461.8,211.1 463.2,215.1 464.5,219.2 465.6,223.2 466.6,227.3 467.5,231.3 468.2,235.3 468.8,239.3 469.3,243.3 469.7,247.4 469.9,251.4 470.0,255.4 470.0,259.4 469.8,263.4 469.6,267.5 469.2,271.5 468.6,275.5 468.0,279.5 467.2,283.6 466.3,287.6 465.2,291.7 464.0,295.7 462.7,299.8 461.2,303.8 459.6,307.9 457.8,312.0 455.9,316.1 453.8,320.2 451.6,324.3 449.2,328.4 446.6,332.5 443.8,336.6 440.8,340.8 437.6,344.9 434.3,349.0 430.7,353.1 426.9,357.2 422.9,361.3 418.6,365.4 414.1,369.5 409.3,373.5 404.3,377.5 398.9,381.5 393.3,385.4 387.4,389.3 381.1,393.1 374.5,396.8 367.6,400.4 360.3,403.9 352.7,407.3 344.7,410.6 336.3,413.6" fill="none" stroke="rgba(45,109,163,0.603)" stroke-width="1.4" stroke-linecap="round"/>
  <polyline points="244.2,98.8 254.9,97.9 265.4,97.4 275.6,97.4 285.6,97.7 295.3,98.4 304.7,99.4 313.8,100.7 322.6,102.3 331.1,104.1 339.2,106.1 347.1,108.4 354.7,110.8 362.0,113.4 368.9,116.1 375.6,119.0 382.1,122.0 388.3,125.1 394.1,128.4 399.7,132.2 405.0,136.1 409.9,139.9 414.7,143.9 419.1,147.8 423.4,151.8 427.4,155.8 431.1,159.8 434.7,163.8 438.1,167.9 441.2,171.9 444.2,175.9 447.0,180.0 449.6,184.0 452.0,188.1 454.3,192.1 456.4,196.1 458.3,200.2 460.1,204.2 461.7,208.2 463.2,212.2 464.6,216.2 465.8,220.2 466.9,224.3 467.9,228.3 468.7,232.2 469.4,236.2 470.0,240.2 470.4,244.2 470.7,248.2 470.9,252.2 471.0,256.2 471.0,260.2 470.8,264.2 470.5,268.2 470.1,272.1 469.6,276.1 468.9,280.2 468.1,284.2 467.2,288.2 466.2,292.2 465.0,296.2 463.7,300.3 462.2,304.3 460.6,308.3 458.9,312.4 457.0,316.5 455.0,320.5 452.7,324.6 450.4,328.7 447.8,332.8 445.1,336.9 442.2,341.0 439.1,345.1 435.8,349.2 432.3,353.3 428.6,357.4 424.7,361.5 420.5,365.6 416.1,369.7 411.4,373.7 406.5,377.7 401.3,381.7 395.9,385.7 390.1,389.6 384.0,393.4 377.6,397.2 370.9,400.8 363.8,404.4 356.4,407.9 348.6,411.2" fill="none" stroke="rgba(45,109,163,0.536)" stroke-width="1.3" stroke-linecap="round"/>
  <polyline points="244.2,98.8 254.7,97.8 265.0,97.2 275.0,97.1 284.8,97.3 294.4,97.8 303.6,98.7 312.6,99.9 321.3,101.3 329.7,103.0 337.8,104.9 345.7,107.0 353.2,109.3 360.5,111.7 367.5,114.3 374.2,117.1 380.6,119.9 386.9,122.9 392.8,126.2 398.4,129.9 403.7,133.7 408.7,137.6 413.5,141.4 418.0,145.4 422.3,149.3 426.4,153.3 430.2,157.2 433.9,161.2 437.3,165.2 440.5,169.2 443.5,173.3 446.4,177.3 449.0,181.3 451.5,185.3 453.9,189.3 456.0,193.3 458.1,197.3 459.9,201.3 461.6,205.3 463.2,209.3 464.7,213.3 466.0,217.3 467.1,221.3 468.2,225.2 469.1,229.2 469.9,233.2 470.5,237.1 471.1,241.1 471.5,245.0 471.8,249.0 472.0,253.0 472.0,256.9 472.0,260.9 471.8,264.8 471.5,268.8 471.1,272.8 470.6,276.7 469.9,280.7 469.1,284.7 468.2,288.7 467.2,292.7 466.0,296.7 464.7,300.7 463.3,304.7 461.7,308.7 460.0,312.8 458.1,316.8 456.1,320.9 454.0,324.9 451.6,329.0 449.1,333.1 446.5,337.1 443.6,341.2 440.6,345.3 437.4,349.4 434.0,353.5 430.4,357.6 426.5,361.7 422.5,365.8 418.2,369.8 413.6,373.9 408.8,377.9 403.8,381.9 398.5,385.9 392.8,389.8 386.9,393.7 380.7,397.5 374.2,401.2 367.3,404.9 360.1,408.4" fill="none" stroke="rgba(45,109,163,0.468)" stroke-width="1.2" stroke-linecap="round"/>
  <polyline points="244.2,98.8 254.4,97.7 264.5,97.0 274.4,96.7 284.0,96.8 293.4,97.3 302.6,98.0 311.4,99.0 320.0,100.3 328.4,101.8 336.4,103.6 344.2,105.6 351.7,107.7 359.0,110.0 366.0,112.5 372.7,115.1 379.2,117.9 385.4,120.8 391.4,123.9 397.1,127.6 402.4,131.4 407.5,135.2 412.3,139.0 416.9,142.9 421.3,146.8 425.4,150.7 429.3,154.7 433.0,158.7 436.5,162.6 439.7,166.6 442.8,170.6 445.7,174.6 448.5,178.6 451.0,182.6 453.4,186.5 455.7,190.5 457.8,194.5 459.7,198.5 461.5,202.4 463.2,206.4 464.7,210.4 466.0,214.3 467.3,218.3 468.4,222.2 469.4,226.2 470.3,230.1 471.0,234.0 471.7,238.0 472.2,241.9 472.6,245.8 472.8,249.8 473.0,253.7 473.0,257.6 473.0,261.5 472.8,265.5 472.5,269.4 472.1,273.3 471.5,277.3 470.9,281.2 470.1,285.2 469.2,289.1 468.2,293.1 467.0,297.1 465.7,301.1 464.3,305.1 462.8,309.1 461.1,313.1 459.3,317.1 457.3,321.1 455.2,325.2 452.9,329.2 450.5,333.3 447.9,337.3 445.1,341.4 442.2,345.5 439.0,349.5 435.7,353.6 432.2,357.7 428.4,361.8 424.5,365.9 420.3,369.9 415.9,374.0 411.2,378.0 406.3,382.0 401.1,386.0 395.7,390.0 389.9,393.9 383.9,397.7 377.5,401.5 370.8,405.2" fill="none" stroke="rgba(45,109,163,0.400)" stroke-width="1.0" stroke-linecap="round"/>
  <polyline points="244.2,98.8 254.2,97.6 264.1,96.8 273.8,96.4 283.2,96.4 292.5,96.7 301.5,97.3 310.3,98.2 318.8,99.3 327.0,100.7 335.0,102.3 342.8,104.2 350.3,106.2 357.5,108.4 364.5,110.7 371.2,113.2 377.8,115.8 384.0,118.6 390.1,121.6 395.7,125.3 401.1,129.0 406.3,132.8 411.2,136.6 415.8,140.5 420.2,144.3 424.4,148.2 428.3,152.2 432.1,156.1 435.6,160.0 439.0,164.0 442.1,167.9 445.1,171.9 447.9,175.9 450.5,179.8 453.0,183.8 455.3,187.7 457.4,191.7 459.5,195.6 461.3,199.6 463.0,203.5 464.6,207.5 466.1,211.4 467.4,215.3 468.6,219.2 469.7,223.1 470.6,227.0 471.5,231.0 472.2,234.9 472.8,238.8 473.2,242.7 473.6,246.6 473.9,250.5 474.0,254.3 474.0,258.2 474.0,262.1 473.8,266.0 473.5,270.0 473.0,273.9 472.5,277.8 471.9,281.7 471.1,285.6 470.2,289.5 469.2,293.5 468.1,297.4 466.8,301.4 465.4,305.4 463.9,309.3 462.3,313.3 460.5,317.3 458.6,321.3 456.5,325.3 454.3,329.4 451.9,333.4 449.4,337.4 446.6,341.5 443.8,345.6 440.7,349.6 437.5,353.7 434.0,357.8 430.4,361.9 426.5,365.9 422.5,370.0 418.2,374.1 413.6,378.1 408.9,382.1 403.8,386.1 398.5,390.1 392.9,394.0 387.1,397.9 380.9,401.8" fill="none" stroke="rgba(45,109,163,0.333)" stroke-width="0.9" stroke-linecap="round"/>
  <polyline points="244.2,98.8 254.0,97.5 263.7,96.6 273.2,96.1 282.5,96.0 291.6,96.1 300.4,96.6 309.1,97.3 317.5,98.4 325.7,99.6 333.6,101.1 341.3,102.8 348.8,104.7 356.0,106.7 363.0,108.9 369.8,111.3 376.3,113.8 382.6,116.4 388.7,119.4 394.4,123.0 399.8,126.7 405.0,130.4 409.9,134.2 414.6,138.0 419.1,141.9 423.3,145.8 427.3,149.6 431.1,153.5 434.7,157.5 438.1,161.4 441.3,165.3 444.4,169.2 447.2,173.2 449.9,177.1 452.5,181.0 454.8,185.0 457.1,188.9 459.1,192.8 461.1,196.7 462.9,200.6 464.5,204.6 466.1,208.5 467.5,212.3 468.7,216.2 469.9,220.1 470.9,224.0 471.8,227.9 472.6,231.8 473.3,235.6 473.9,239.5 474.3,243.4 474.7,247.2 474.9,251.1 475.0,255.0 475.0,258.8 475.0,262.7 474.8,266.6 474.4,270.5 474.0,274.3 473.5,278.2 472.9,282.1 472.1,286.0 471.2,289.9 470.2,293.8 469.1,297.7 467.9,301.7 466.6,305.6 465.1,309.6 463.5,313.5 461.7,317.5 459.8,321.5 457.8,325.5 455.6,329.5 453.3,333.5 450.9,337.5 448.2,341.6 445.4,345.6 442.4,349.7 439.3,353.7 435.9,357.8 432.4,361.9 428.6,365.9 424.7,370.0 420.5,374.1 416.1,378.1 411.5,382.2 406.6,386.2 401.4,390.2 396.0,394.1 390.3,398.1" fill="none" stroke="rgba(45,109,163,0.266)" stroke-width="0.8" stroke-linecap="round"/>
  <polyline points="244.2,98.8 253.8,97.4 263.2,96.4 272.6,95.8 281.7,95.5 290.6,95.6 299.4,95.9 307.9,96.5 316.3,97.4 324.4,98.5 332.3,99.9 339.9,101.4 347.3,103.2 354.5,105.1 361.5,107.2 368.3,109.4 374.8,111.8 381.2,114.3 387.3,117.1 393.0,120.7 398.5,124.4 403.7,128.1 408.7,131.8 413.5,135.6 418.0,139.4 422.2,143.3 426.3,147.1 430.2,151.0 433.8,154.9 437.3,158.8 440.6,162.7 443.7,166.6 446.6,170.5 449.3,174.4 451.9,178.3 454.4,182.2 456.7,186.1 458.8,190.0 460.8,193.9 462.7,197.8 464.4,201.7 466.0,205.5 467.4,209.4 468.8,213.3 470.0,217.1 471.1,221.0 472.1,224.8 473.0,228.7 473.8,232.5 474.4,236.4 474.9,240.2 475.4,244.0 475.7,247.9 475.9,251.7 476.0,255.5 476.1,259.4 476.0,263.2 475.8,267.1 475.4,270.9 475.0,274.8 474.5,278.6 473.9,282.5 473.1,286.3 472.3,290.2 471.3,294.1 470.2,298.0 469.0,301.9 467.7,305.8 466.3,309.7 464.7,313.7 463.0,317.6 461.1,321.6 459.2,325.6 457.1,329.5 454.8,333.5 452.4,337.5 449.8,341.6 447.1,345.6 444.2,349.6 441.1,353.7 437.9,357.7 434.4,361.8 430.8,365.9 427.0,369.9 422.9,374.0 418.6,378.1 414.1,382.1 409.4,386.2 404.4,390.2 399.2,394.2" fill="none" stroke="rgba(45,109,163,0.197)" stroke-width="0.7" stroke-linecap="round"/>
  <polyline points="244.2,98.8 253.5,97.3 262.8,96.2 272.0,95.5 280.9,95.1 289.7,95.0 298.4,95.2 306.8,95.7 315.0,96.5 323.1,97.4 330.9,98.7 338.5,100.1 345.9,101.7 353.1,103.5 360.0,105.4 366.8,107.5 373.3,109.8 379.7,112.2 385.8,114.9 391.6,118.4 397.2,122.1 402.4,125.7 407.5,129.5 412.3,133.2 416.8,137.0 421.1,140.8 425.3,144.6 429.2,148.5 432.9,152.3 436.4,156.2 439.7,160.1 442.9,163.9 445.9,167.8 448.7,171.7 451.3,175.6 453.8,179.5 456.2,183.3 458.4,187.2 460.5,191.1 462.4,194.9 464.2,198.8 465.9,202.6 467.4,206.5 468.8,210.3 470.1,214.1 471.3,218.0 472.4,221.8 473.3,225.6 474.1,229.4 474.9,233.2 475.5,237.0 476.0,240.8 476.4,244.6 476.7,248.4 477.0,252.2 477.1,256.1 477.1,259.9 477.0,263.7 476.8,267.5 476.5,271.3 476.0,275.1 475.5,278.9 474.9,282.8 474.2,286.6 473.3,290.5 472.4,294.3 471.3,298.2 470.2,302.1 468.9,306.0 467.5,309.9 465.9,313.8 464.3,317.7 462.5,321.6 460.6,325.6 458.5,329.5 456.3,333.5 454.0,337.5 451.5,341.5 448.8,345.5 446.0,349.6 443.0,353.6 439.9,357.6 436.5,361.7 433.0,365.8 429.3,369.8 425.4,373.9 421.2,378.0 416.9,382.0 412.3,386.1 407.5,390.1" fill="none" stroke="rgba(45,109,163,0.130)" stroke-width="0.5" stroke-linecap="round"/>
  <polyline points="244.2,98.8 253.3,97.2 262.4,96.0 271.4,95.2 280.2,94.7 288.9,94.5 297.4,94.5 305.7,94.9 313.8,95.5 321.8,96.4 329.5,97.4 337.1,98.7 344.4,100.2 351.6,101.8 358.5,103.7 365.3,105.7 371.9,107.8 378.2,110.0 384.4,112.7 390.2,116.2 395.8,119.8 401.1,123.4 406.2,127.1 411.0,130.8 415.6,134.6 420.0,138.3 424.2,142.1 428.2,145.9 431.9,149.8 435.5,153.6 438.9,157.5 442.1,161.3 445.1,165.2 448.0,169.0 450.7,172.9 453.3,176.7 455.7,180.6 458.0,184.4 460.1,188.2 462.1,192.1 463.9,195.9 465.7,199.7 467.3,203.5 468.8,207.3 470.1,211.2 471.4,215.0 472.5,218.7 473.6,222.5 474.5,226.3 475.3,230.1 476.0,233.9 476.6,237.7 477.1,241.4 477.5,245.2 477.8,249.0 478.0,252.7 478.1,256.5 478.1,260.3 478.0,264.1 477.8,267.9 477.5,271.6 477.1,275.4 476.6,279.2 475.9,283.0 475.2,286.8 474.4,290.7 473.5,294.5 472.5,298.3 471.3,302.2 470.1,306.1 468.7,309.9 467.2,313.8 465.6,317.7 463.9,321.6 462.0,325.6 460.0,329.5 457.9,333.5 455.6,337.4 453.2,341.4 450.6,345.4 447.9,349.4 445.0,353.4 441.9,357.5 438.7,361.5 435.3,365.6 431.7,369.6 427.9,373.7 423.9,377.8 419.6,381.9 415.2,385.9" fill="none" stroke="rgba(45,109,163,0.063)" stroke-width="0.4" stroke-linecap="round"/>
  <circle cx="370.4" cy="256.0" r="11.2" fill="rgb(45,109,163)"/>
  <circle cx="244.2" cy="98.8" r="6.0" fill="rgb(45,109,163)"/>
</svg>